<svg width="20" height="20" viewBox="0 0 20 20" fill="none" xmlns="http://www.w3.org/2000/svg">
<path d="M1 14.9655L4.40906 10.629C5.37574 9.3993 7.22493 9.35908 8.24419 10.5456L11.2414 14.0345L1 14.9655ZM8.6531 11.0217C9.94066 9.3839 11.7346 7.06358 11.8514 6.91262C11.8555 6.90722 11.8595 6.90211 11.8637 6.89676C12.8322 5.67501 14.6754 5.63756 15.6925 6.82141L18.6897 10.3103L8.6531 11.0217ZM3.48276 19H16.5172C17.8885 19 19 17.8885 19 16.5172V3.48276C19 2.11157 17.8885 1 16.5172 1H3.48276C2.11157 1 1 2.11157 1 3.48276V16.5172C1 17.8885 2.11157 19 3.48276 19Z" stroke="white" stroke-width="1.5" stroke-linecap="round" stroke-linejoin="round"/>
</svg>
