<svg width="72" height="72" viewBox="0 0 72 72" fill="none" xmlns="http://www.w3.org/2000/svg">
<mask id="mask0_2438_1460" style="mask-type:alpha" maskUnits="userSpaceOnUse" x="0" y="0" width="72" height="72">
<path fill-rule="evenodd" clip-rule="evenodd" d="M15.9784 29.2615C15.8283 31.431 15.7489 33.6848 15.7489 36C15.7489 38.315 15.8283 40.5686 15.9784 42.7379C20.8048 43.9776 26.7769 44.7908 33.3396 44.9653C33.5914 42.2854 33.7339 39.4565 33.7491 36.5256C33.7482 36.3507 33.7478 36.1755 33.7478 36C33.7478 35.8245 33.7482 35.6493 33.7491 35.4744C33.7339 32.5433 33.5914 29.7142 33.3395 27.0341C26.7769 27.2086 20.8048 28.0218 15.9784 29.2615ZM11.3838 30.7001C11.2948 32.4311 11.2489 34.2011 11.2489 36C11.2489 37.7987 11.2948 39.5685 11.3838 41.2992C9.17934 40.4587 7.47238 39.5398 6.29499 38.6119C4.84361 37.468 4.5 36.5683 4.5 35.9997C4.5 35.4311 4.84361 34.5314 6.29499 33.3875C7.47238 32.4596 9.17936 31.5407 11.3838 30.7001ZM11.7598 25.7991C11.647 25.8357 11.535 25.8725 11.4236 25.9097C8.23878 26.9713 5.49914 28.2851 3.50949 29.8532C1.54519 31.4014 0 33.4614 0 35.9997C0 38.5379 1.54519 40.598 3.50949 42.1461C5.49914 43.7143 8.23878 45.028 11.4236 46.0897C11.5349 46.1268 11.647 46.1637 11.7597 46.2003C12.3207 51.6506 13.3225 56.5654 14.6597 60.5764C15.7213 63.7612 17.0351 66.5009 18.6032 68.4905C20.1514 70.4548 22.2115 72 24.7497 72C27.2879 72 29.348 70.4548 30.8961 68.4905C32.4643 66.5009 33.778 63.7612 34.8397 60.5764C35.2605 59.3142 35.6481 57.9625 35.9991 56.5328C36.3502 57.9625 36.7378 59.3142 37.1586 60.5764C38.2202 63.7612 39.534 66.5009 41.1021 68.4905C42.6503 70.4548 44.7104 72 47.2486 72C49.7868 72 51.8469 70.4548 53.395 68.4905C54.9632 66.5009 56.2769 63.7612 57.3386 60.5764C58.6757 56.5655 59.6775 51.651 60.2385 46.2009C60.3519 46.1641 60.4645 46.127 60.5764 46.0897C63.7612 45.028 66.5009 43.7143 68.4905 42.1461C70.4548 40.598 72 38.5379 72 35.9997C72 33.4614 70.4548 31.4014 68.4905 29.8532C66.5009 28.2851 63.7612 26.9713 60.5764 25.9097C60.4645 25.8723 60.3518 25.8353 60.2385 25.7985C59.6775 20.3486 58.6756 15.4343 57.3386 11.4236C56.2769 8.23878 54.9632 5.49914 53.395 3.50949C51.8469 1.54519 49.7868 0 47.2486 0C44.7104 0 42.6503 1.54519 41.1021 3.50949C39.534 5.49914 38.2202 8.23878 37.1586 11.4236C36.7378 12.6858 36.3502 14.0375 35.9991 15.4672C35.6481 14.0375 35.2605 12.6858 34.8397 11.4236C33.778 8.23878 32.4643 5.49914 30.8961 3.50949C29.348 1.54519 27.2879 0 24.7497 0C22.2115 0 20.1514 1.54519 18.6032 3.50949C17.0351 5.49914 15.7213 8.23878 14.6597 11.4236C13.3226 15.4345 12.3207 20.349 11.7598 25.7991ZM16.4331 24.5213C21.2156 23.4279 26.8035 22.7318 32.797 22.5478C32.2499 18.8842 31.4888 15.6009 30.5707 12.8467C29.5964 9.92397 28.4858 7.72103 27.3619 6.29499C26.218 4.84361 25.3183 4.5 24.7497 4.5C24.1811 4.5 23.2814 4.84361 22.1375 6.29499C21.0136 7.72103 19.903 9.92397 18.9287 12.8467C17.8486 16.0868 16.9859 20.059 16.4331 24.5213ZM38.6588 27.0341C38.4069 29.7142 38.2644 32.5432 38.2492 35.4744C38.25 35.6493 38.2505 35.8245 38.2505 36C38.2505 36.1755 38.25 36.3507 38.2492 36.5256C38.2644 39.4565 38.4069 42.2854 38.6587 44.9653C45.2213 44.791 51.1934 43.9779 56.0199 42.7383C56.17 40.5689 56.2494 38.3152 56.2494 36C56.2494 33.6846 56.17 31.4307 56.0198 29.2611C51.1933 28.0215 45.2213 27.2084 38.6588 27.0341ZM55.5651 24.5209C50.7826 23.4277 45.1947 22.7317 39.2013 22.5478C39.7484 18.8842 40.5095 15.6009 41.4276 12.8467C42.4019 9.92397 43.5125 7.72103 44.6364 6.29499C45.7803 4.84361 46.68 4.5 47.2486 4.5C47.8172 4.5 48.7169 4.84361 49.8608 6.29499C50.9847 7.72103 52.0953 9.92397 53.0696 12.8467C54.1496 16.0867 55.0124 20.0588 55.5651 24.5209ZM60.6144 30.6995C60.7034 32.4306 60.7494 34.2009 60.7494 36C60.7494 37.7989 60.7034 39.5689 60.6145 41.2999C62.8198 40.4591 64.5273 39.5401 65.705 38.6119C67.1564 37.468 67.5 36.5683 67.5 35.9997C67.5 35.4311 67.1564 34.5314 65.705 33.3875C64.5273 32.4593 62.8197 31.5402 60.6144 30.6995ZM55.5652 47.4784C50.7826 48.5717 45.1946 49.2677 39.2012 49.4516C39.7483 53.1155 40.5094 56.3989 41.4276 59.1533C42.4019 62.076 43.5125 64.279 44.6364 65.705C45.7803 67.1564 46.68 67.5 47.2486 67.5C47.8172 67.5 48.7169 67.1564 49.8608 65.705C50.9847 64.279 52.0953 62.076 53.0696 59.1533C54.1497 55.9132 55.0124 51.9408 55.5652 47.4784ZM32.7971 49.4515C26.8035 49.2676 21.2155 48.5714 16.433 47.478C16.9858 51.9406 17.8486 55.9131 18.9287 59.1533C19.903 62.076 21.0136 64.279 22.1375 65.705C23.2814 67.1564 24.1811 67.5 24.7497 67.5C25.3183 67.5 26.218 67.1564 27.3619 65.705C28.4858 64.279 29.5964 62.076 30.5707 59.1533C31.4889 56.3989 32.25 53.1154 32.7971 49.4515Z" fill="white"/>
</mask>
<g mask="url(#mask0_2438_1460)">
<rect x="-43.875" y="115.875" width="159.75" height="159.75" transform="rotate(-90 -43.875 115.875)" fill="url(#paint0_angular_2438_1460)"/>
<g filter="url(#filter0_b_2438_1460)">
<rect x="-94.2188" y="-43.7344" width="264.971" height="147.055" fill="white" fill-opacity="0.01"/>
</g>
</g>
<defs>
<filter id="filter0_b_2438_1460" x="-126.219" y="-75.7344" width="328.971" height="211.055" filterUnits="userSpaceOnUse" color-interpolation-filters="sRGB">
<feFlood flood-opacity="0" result="BackgroundImageFix"/>
<feGaussianBlur in="BackgroundImageFix" stdDeviation="16"/>
<feComposite in2="SourceAlpha" operator="in" result="effect1_backgroundBlur_2438_1460"/>
<feBlend mode="normal" in="SourceGraphic" in2="effect1_backgroundBlur_2438_1460" result="shape"/>
</filter>
<radialGradient id="paint0_angular_2438_1460" cx="0" cy="0" r="1" gradientUnits="userSpaceOnUse" gradientTransform="translate(36 195.75) rotate(119.592) scale(111.606)">
<stop stop-color="#DCED71"/>
<stop offset="0.1" stop-color="#08EDDF"/>
<stop offset="0.2" stop-color="#71C8F9"/>
<stop offset="0.3" stop-color="#DCED71"/>
<stop offset="0.4" stop-color="#C5ED71"/>
<stop offset="0.5" stop-color="#08C4ED"/>
<stop offset="0.6" stop-color="#08DFED"/>
<stop offset="0.7" stop-color="#7BE4B2"/>
<stop offset="0.8" stop-color="#96D8ED"/>
<stop offset="0.9" stop-color="#DCED71"/>
<stop offset="1" stop-color="#C5ED71"/>
</radialGradient>
</defs>
</svg>
