<svg width="47" height="33" viewBox="0 0 47 33" fill="none" xmlns="http://www.w3.org/2000/svg">
<path fill-rule="evenodd" clip-rule="evenodd" d="M32.5922 0.5625H27.5452V10.8485C27.5221 10.9179 27.4603 11.003 27.3344 11.0744C27.1911 11.1556 26.9974 11.1981 26.797 11.1802L26.7791 11.1786H19.6405L19.6226 11.1802C19.4223 11.1981 19.2286 11.1556 19.0853 11.0744C18.9595 11.003 18.8976 10.9179 18.8744 10.8485V0.5625H13.8418V32.0519H18.8744V20.8992C18.8966 20.8295 18.9578 20.7435 19.0843 20.6712C19.2275 20.5894 19.4217 20.5464 19.6229 20.5643L19.6407 20.5658H26.7933L26.8111 20.5643C27.0122 20.5464 27.2065 20.5894 27.3497 20.6712C27.4762 20.7435 27.5374 20.8295 27.5596 20.8992V32.0625H32.5922V0.5625Z" fill="#DCED71"/>
<path fill-rule="evenodd" clip-rule="evenodd" d="M10.0661 2.68652H6.73389V29.9273H10.0661V2.68652Z" fill="#DCED71"/>
<path fill-rule="evenodd" clip-rule="evenodd" d="M2.957 3.95703H0.478516V28.6572H2.957V3.95703Z" fill="#DCED71"/>
<path fill-rule="evenodd" clip-rule="evenodd" d="M45.9626 3.95703H43.4771V28.6572H45.9626V3.95703Z" fill="#DCED71"/>
<path fill-rule="evenodd" clip-rule="evenodd" d="M39.7005 2.68652H36.3682V29.9273H39.7005V2.68652Z" fill="#DCED71"/>
</svg>