<svg width="30" height="30" viewBox="0 0 30 30" fill="none" xmlns="http://www.w3.org/2000/svg">
<path d="M5.9375 7.1875C5.9375 6.49715 6.49715 5.9375 7.1875 5.9375H11.5625C12.2529 5.9375 12.8125 6.49715 12.8125 7.1875V11.5625C12.8125 12.2529 12.2529 12.8125 11.5625 12.8125H7.1875C6.49715 12.8125 5.9375 12.2529 5.9375 11.5625V7.1875Z" stroke="white" stroke-width="1.5" stroke-linecap="round" stroke-linejoin="round"/>
<path d="M5.9375 18.4375C5.9375 17.7471 6.49715 17.1875 7.1875 17.1875H11.5625C12.2529 17.1875 12.8125 17.7471 12.8125 18.4375V22.8125C12.8125 23.5029 12.2529 24.0625 11.5625 24.0625H7.1875C6.49715 24.0625 5.9375 23.5029 5.9375 22.8125V18.4375Z" stroke="white" stroke-width="1.5" stroke-linecap="round" stroke-linejoin="round"/>
<path d="M17.1875 7.1875C17.1875 6.49715 17.7471 5.9375 18.4375 5.9375H22.8125C23.5029 5.9375 24.0625 6.49715 24.0625 7.1875V11.5625C24.0625 12.2529 23.5029 12.8125 22.8125 12.8125H18.4375C17.7471 12.8125 17.1875 12.2529 17.1875 11.5625V7.1875Z" stroke="white" stroke-width="1.5" stroke-linecap="round" stroke-linejoin="round"/>
<path d="M17.1875 18.4375C17.1875 17.7471 17.7471 17.1875 18.4375 17.1875H22.8125C23.5029 17.1875 24.0625 17.7471 24.0625 18.4375V22.8125C24.0625 23.5029 23.5029 24.0625 22.8125 24.0625H18.4375C17.7471 24.0625 17.1875 23.5029 17.1875 22.8125V18.4375Z" stroke="white" stroke-width="1.5" stroke-linecap="round" stroke-linejoin="round"/>
</svg>
