<svg width="32" height="32" viewBox="0 0 32 32" fill="none" xmlns="http://www.w3.org/2000/svg">
<path d="M17.4921 7.48452C17.401 6.82479 16.8371 6.33337 16.1713 6.33337H15.8286C15.1627 6.33337 14.5989 6.82479 14.5078 7.48452L14.3917 8.32685C14.3175 8.86424 13.9203 9.292 13.4162 9.49233C13.3413 9.52212 13.2669 9.55316 13.1932 9.58544C12.6961 9.80324 12.1124 9.78457 11.6783 9.45896L11.2682 9.15139C10.7373 8.75327 9.99455 8.80605 9.52536 9.27524L9.27513 9.52548C8.80595 9.99467 8.75315 10.7375 9.15127 11.2683L9.45884 11.6784C9.78447 12.1125 9.80312 12.6963 9.58532 13.1933C9.55304 13.267 9.522 13.3414 9.49221 13.4163C9.29188 13.9204 8.86412 14.3176 8.32673 14.3918L7.4844 14.5079C6.82467 14.599 6.33325 15.1627 6.33325 15.8287V16.1714C6.33325 16.8372 6.82467 17.4011 7.4844 17.4922L8.32673 17.6083C8.86412 17.6824 9.29188 18.0796 9.49221 18.5838C9.522 18.6587 9.55304 18.7331 9.58532 18.8067C9.80312 19.3038 9.78445 19.8875 9.45884 20.3216L9.15127 20.7318C8.75315 21.2626 8.80593 22.0054 9.27512 22.4746L9.52536 22.7248C9.99455 23.194 10.7373 23.2468 11.2682 22.8487L11.6783 22.5411C12.1124 22.2155 12.6961 22.1968 13.1932 22.4147C13.2669 22.447 13.3413 22.4779 13.4162 22.5078C13.9203 22.708 14.3175 23.1359 14.3917 23.6732L14.5078 24.5155C14.5989 25.1752 15.1627 25.6667 15.8286 25.6667H16.1713C16.8371 25.6667 17.401 25.1752 17.4921 24.5155L17.6082 23.6732C17.6823 23.1359 18.0795 22.708 18.5837 22.5078C18.6586 22.4779 18.733 22.447 18.8066 22.4146C19.3037 22.1968 19.8874 22.2155 20.3215 22.5411L20.7317 22.8487C21.2625 23.2468 22.0053 23.194 22.4745 22.7248L22.7247 22.4746C23.1939 22.0054 23.2467 21.2626 22.8486 20.7318L22.541 20.3216C22.2154 19.8875 22.1967 19.3038 22.4146 18.8067C22.4469 18.7331 22.4778 18.6587 22.5077 18.5838C22.7079 18.0796 23.1358 17.6824 23.6731 17.6083L24.5154 17.4922C25.1751 17.4011 25.6666 16.8372 25.6666 16.1714V15.8287C25.6666 15.1628 25.1751 14.599 24.5154 14.5079L23.6731 14.3918C23.1358 14.3176 22.7079 13.9204 22.5077 13.4163C22.4778 13.3414 22.4469 13.267 22.4145 13.1933C22.1967 12.6963 22.2154 12.1125 22.541 11.6784L22.8486 11.2683C23.2467 10.7375 23.1939 9.99469 22.7247 9.52551L22.4745 9.27527C22.0053 8.80608 21.2625 8.75329 20.7317 9.15141L20.3215 9.45896C19.8874 9.78459 19.3037 9.80324 18.8066 9.58544C18.733 9.55316 18.6586 9.52212 18.5837 9.49233C18.0795 9.292 17.6823 8.86424 17.6082 8.32685L17.4921 7.48452Z" stroke="white" stroke-width="1.5" stroke-linecap="round" stroke-linejoin="round"/>
<path d="M17.6666 16C17.6666 16.9206 16.9205 17.6667 15.9999 17.6667C15.0794 17.6667 14.3333 16.9206 14.3333 16C14.3333 15.0795 15.0794 14.3334 15.9999 14.3334C16.9205 14.3334 17.6666 15.0795 17.6666 16Z" stroke="white" stroke-width="1.5" stroke-linecap="round" stroke-linejoin="round"/>
</svg>
