<svg width="96" height="101" viewBox="0 0 96 101" fill="none" xmlns="http://www.w3.org/2000/svg">
<path d="M9.10961 45.4148C6.03044 45.4386 2.96342 45.0284 0 44.1963L2.05862 37.731C2.16697 37.731 13.2935 41.0465 22.5531 34.6309C30.8376 28.8868 35.3883 17.2326 36.1967 0L43.006 0.314977C42.0892 19.8104 36.4968 33.2467 26.337 40.2425C21.253 43.693 15.2223 45.4992 9.06793 45.4148" fill="#2665FF"/>
<path d="M86.5031 45.4148C80.3487 45.4992 74.318 43.693 69.234 40.2425C59.1159 33.2467 53.5235 19.8104 52.6067 0.314977L59.416 0C60.2494 17.2326 64.8167 28.8868 73.0596 34.6309C82.3192 41.088 93.4457 37.7641 93.5541 37.731L95.6127 44.1963C92.6493 45.0284 89.5823 45.4386 86.5031 45.4148Z" fill="#2665FF"/>
<path d="M59.416 101L52.6067 100.685C53.5235 81.2308 59.1159 67.7531 69.234 60.7573C81.2857 52.4104 95.071 56.6128 95.6127 56.8035L93.5541 63.2688C93.4457 63.2688 82.3192 59.9533 73.0596 66.3688C64.8167 72.113 60.2328 83.7755 59.416 101Z" fill="#2665FF"/>
<path d="M36.1967 101C35.3799 83.7671 30.8376 72.1129 22.5531 66.3687C13.3352 59.9117 2.16697 63.2355 2.05862 63.2687L0 56.8033C0.57508 56.621 14.327 52.4102 26.3787 60.7571C36.4968 67.753 42.0892 81.2307 43.006 100.685L36.1967 101Z" fill="#2665FF"/>
</svg>
