<svg width="1191" height="953" viewBox="0 0 1191 953" fill="none" xmlns="http://www.w3.org/2000/svg">
<g filter="url(#filter0_f_625_6997)">
<ellipse cx="595.5" cy="924.5" rx="565.5" ry="104.5" fill="url(#paint0_linear_625_6997)" fill-opacity="0.1"/>
</g>
<g style="mix-blend-mode:overlay" opacity="0.7" filter="url(#filter1_f_625_6997)">
<path d="M418 546H762V833C762 833 717.412 812.977 590.456 812.977C463.5 812.977 418 833 418 833V546Z" fill="url(#paint1_linear_625_6997)"/>
</g>
<g opacity="0.3" filter="url(#filter2_f_625_6997)">
<ellipse cx="591.5" cy="833" rx="173.5" ry="25" fill="url(#paint2_radial_625_6997)"/>
</g>
<g opacity="0.8" filter="url(#filter3_df_625_6997)">
<path fill-rule="evenodd" clip-rule="evenodd" d="M590 852.74C675.859 852.74 745.462 843.231 745.462 831.5C745.462 819.769 675.859 810.26 590 810.26C504.141 810.26 434.538 819.769 434.538 831.5C434.538 843.231 504.141 852.74 590 852.74ZM590 855C684.993 855 762 844.479 762 831.5C762 818.521 684.993 808 590 808C495.007 808 418 818.521 418 831.5C418 844.479 495.007 855 590 855Z" fill="#0FEAB5"/>
</g>
<g style="mix-blend-mode:overlay" filter="url(#filter4_df_625_6997)">
<path fill-rule="evenodd" clip-rule="evenodd" d="M590 864.827C689.337 864.827 769.865 851.473 769.865 835C769.865 818.527 689.337 805.173 590 805.173C490.663 805.173 410.135 818.527 410.135 835C410.135 851.473 490.663 864.827 590 864.827ZM590 868C699.905 868 789 853.225 789 835C789 816.775 699.905 802 590 802C480.095 802 391 816.775 391 835C391 853.225 480.095 868 590 868Z" fill="#0FC6EA"/>
</g>
<g style="mix-blend-mode:color-dodge" opacity="0.6" filter="url(#filter5_df_625_6997)">
<path fill-rule="evenodd" clip-rule="evenodd" d="M590 864.827C689.337 864.827 769.865 851.473 769.865 835C769.865 818.527 689.337 805.173 590 805.173C490.663 805.173 410.135 818.527 410.135 835C410.135 851.473 490.663 864.827 590 864.827ZM590 868C699.905 868 789 853.225 789 835C789 816.775 699.905 802 590 802C480.095 802 391 816.775 391 835C391 853.225 480.095 868 590 868Z" fill="#0FEAB5"/>
</g>
<defs>
<filter id="filter0_f_625_6997" x="0" y="790" width="1191" height="269" filterUnits="userSpaceOnUse" color-interpolation-filters="sRGB">
<feFlood flood-opacity="0" result="BackgroundImageFix"/>
<feBlend mode="normal" in="SourceGraphic" in2="BackgroundImageFix" result="shape"/>
<feGaussianBlur stdDeviation="15" result="effect1_foregroundBlur_625_6997"/>
</filter>
<filter id="filter1_f_625_6997" x="398" y="526" width="384" height="327" filterUnits="userSpaceOnUse" color-interpolation-filters="sRGB">
<feFlood flood-opacity="0" result="BackgroundImageFix"/>
<feBlend mode="normal" in="SourceGraphic" in2="BackgroundImageFix" result="shape"/>
<feGaussianBlur stdDeviation="10" result="effect1_foregroundBlur_625_6997"/>
</filter>
<filter id="filter2_f_625_6997" x="403" y="793" width="377" height="80" filterUnits="userSpaceOnUse" color-interpolation-filters="sRGB">
<feFlood flood-opacity="0" result="BackgroundImageFix"/>
<feBlend mode="normal" in="SourceGraphic" in2="BackgroundImageFix" result="shape"/>
<feGaussianBlur stdDeviation="7.5" result="effect1_foregroundBlur_625_6997"/>
</filter>
<filter id="filter3_df_625_6997" x="413" y="803" width="354" height="57" filterUnits="userSpaceOnUse" color-interpolation-filters="sRGB">
<feFlood flood-opacity="0" result="BackgroundImageFix"/>
<feColorMatrix in="SourceAlpha" type="matrix" values="0 0 0 0 0 0 0 0 0 0 0 0 0 0 0 0 0 0 127 0" result="hardAlpha"/>
<feOffset/>
<feGaussianBlur stdDeviation="2.5"/>
<feComposite in2="hardAlpha" operator="out"/>
<feColorMatrix type="matrix" values="0 0 0 0 0.0588235 0 0 0 0 0.917647 0 0 0 0 0.709804 0 0 0 1 0"/>
<feBlend mode="normal" in2="BackgroundImageFix" result="effect1_dropShadow_625_6997"/>
<feBlend mode="normal" in="SourceGraphic" in2="effect1_dropShadow_625_6997" result="shape"/>
<feGaussianBlur stdDeviation="1" result="effect2_foregroundBlur_625_6997"/>
</filter>
<filter id="filter4_df_625_6997" x="379" y="794" width="422" height="90" filterUnits="userSpaceOnUse" color-interpolation-filters="sRGB">
<feFlood flood-opacity="0" result="BackgroundImageFix"/>
<feColorMatrix in="SourceAlpha" type="matrix" values="0 0 0 0 0 0 0 0 0 0 0 0 0 0 0 0 0 0 127 0" result="hardAlpha"/>
<feOffset dy="4"/>
<feGaussianBlur stdDeviation="6"/>
<feComposite in2="hardAlpha" operator="out"/>
<feColorMatrix type="matrix" values="0 0 0 0 0.0588235 0 0 0 0 0.917647 0 0 0 0 0.709804 0 0 0 1 0"/>
<feBlend mode="normal" in2="BackgroundImageFix" result="effect1_dropShadow_625_6997"/>
<feBlend mode="normal" in="SourceGraphic" in2="effect1_dropShadow_625_6997" result="shape"/>
<feGaussianBlur stdDeviation="3.5" result="effect2_foregroundBlur_625_6997"/>
</filter>
<filter id="filter5_df_625_6997" x="379" y="794" width="422" height="90" filterUnits="userSpaceOnUse" color-interpolation-filters="sRGB">
<feFlood flood-opacity="0" result="BackgroundImageFix"/>
<feColorMatrix in="SourceAlpha" type="matrix" values="0 0 0 0 0 0 0 0 0 0 0 0 0 0 0 0 0 0 127 0" result="hardAlpha"/>
<feOffset dy="4"/>
<feGaussianBlur stdDeviation="6"/>
<feComposite in2="hardAlpha" operator="out"/>
<feColorMatrix type="matrix" values="0 0 0 0 0.0588235 0 0 0 0 0.917647 0 0 0 0 0.709804 0 0 0 1 0"/>
<feBlend mode="normal" in2="BackgroundImageFix" result="effect1_dropShadow_625_6997"/>
<feBlend mode="normal" in="SourceGraphic" in2="effect1_dropShadow_625_6997" result="shape"/>
<feGaussianBlur stdDeviation="3.5" result="effect2_foregroundBlur_625_6997"/>
</filter>
<linearGradient id="paint0_linear_625_6997" x1="595.5" y1="820" x2="595.5" y2="1029" gradientUnits="userSpaceOnUse">
<stop stop-color="#0FB5EA"/>
<stop offset="0.526042" stop-color="#0FEAB5" stop-opacity="0"/>
</linearGradient>
<linearGradient id="paint1_linear_625_6997" x1="590" y1="546" x2="590" y2="833" gradientUnits="userSpaceOnUse">
<stop stop-color="#39FFDB" stop-opacity="0"/>
<stop offset="1" stop-color="#0FDDEA"/>
</linearGradient>
<radialGradient id="paint2_radial_625_6997" cx="0" cy="0" r="1" gradientUnits="userSpaceOnUse" gradientTransform="translate(591.5 833) rotate(90) scale(25 173.5)">
<stop stop-color="#0FEAB5" stop-opacity="0"/>
<stop offset="1" stop-color="#0FEAB5"/>
</radialGradient>
</defs>
</svg>