<svg width="37" height="15" viewBox="0 0 37 15" fill="none" xmlns="http://www.w3.org/2000/svg">
<path d="M6.9375 0.5625C5.71087 0.5625 4.53449 1.04978 3.66713 1.91713C2.79978 2.78449 2.3125 3.96087 2.3125 5.1875V6.34375H1.15625C0.849593 6.34375 0.555497 6.46557 0.338658 6.68241C0.121819 6.89925 0 7.19334 0 7.5C0 7.80666 0.121819 8.10075 0.338658 8.31759C0.555497 8.53443 0.849593 8.65625 1.15625 8.65625H2.3125V9.8125C2.3125 11.0391 2.79978 12.2155 3.66713 13.0829C4.53449 13.9502 5.71087 14.4375 6.9375 14.4375H9.25C11.0899 14.4375 12.8545 13.7066 14.1556 12.4056C15.4566 11.1045 16.1875 9.33994 16.1875 7.5C16.1875 6.88669 16.4311 6.29849 16.8648 5.86482C17.2985 5.43114 17.8867 5.1875 18.5 5.1875C19.1133 5.1875 19.7015 5.43114 20.1352 5.86482C20.5689 6.29849 20.8125 6.88669 20.8125 7.5C20.8125 9.33994 21.5434 11.1045 22.8444 12.4056C24.1455 13.7066 25.9101 14.4375 27.75 14.4375H30.0625C31.2891 14.4375 32.4655 13.9502 33.3329 13.0829C34.2002 12.2155 34.6875 11.0391 34.6875 9.8125V8.65625H35.8438C36.1504 8.65625 36.4445 8.53443 36.6613 8.31759C36.8782 8.10075 37 7.80666 37 7.5C37 7.19334 36.8782 6.89925 36.6613 6.68241C36.4445 6.46557 36.1504 6.34375 35.8438 6.34375H34.6875V5.1875C34.6875 3.96087 34.2002 2.78449 33.3329 1.91713C32.4655 1.04978 31.2891 0.5625 30.0625 0.5625H25.4375C24.4788 0.562146 23.5437 0.859704 22.7616 1.41402C21.9794 1.96833 21.3888 2.752 21.0715 3.65662C20.3112 3.146 19.4158 2.87385 18.5 2.875C17.5842 2.87385 16.6888 3.146 15.9285 3.65662C15.6112 2.752 15.0206 1.96833 14.2384 1.41402C13.4563 0.859704 12.5212 0.562146 11.5625 0.5625H6.9375ZM6.9375 2.875H9.11356C9.72406 2.875 9.91831 3.69825 9.37256 3.97113L8.31575 4.49838C7.42121 4.94582 6.69582 5.67121 6.24837 6.56575L5.72113 7.62256C5.44825 8.16831 4.625 7.97406 4.625 7.36125V5.1875C4.625 4.57419 4.86864 3.98599 5.30232 3.55232C5.73599 3.11864 6.32419 2.875 6.9375 2.875Z" fill="white"/>
</svg>
