<svg width="34" height="30" viewBox="0 0 34 30" fill="none" xmlns="http://www.w3.org/2000/svg">
<path d="M12.4264 0.000176352C11.9567 -0.00705021 11.2629 0.207579 11.299 0.688868C11.328 1.095 13.9512 0.983711 13.9584 0.673692C13.9729 0.224922 12.9395 0.00451229 12.4264 0.000176352ZM7.03538 3.03461C5.87913 3.55059 4.64411 4.20098 3.72416 5.08262C1.29459 7.61914 -0.331382 11.4348 0.0574066 17.5557C1.23172 19.1816 5.58284 20.2078 7.86643 20.5691C11.5592 18.9793 22.7748 17.2955 27.024 18.9721C26.9229 15.525 26.0268 11.3408 23.7649 7.99492C22.3485 5.40781 20.1371 3.51445 17.2682 2.5143C13.9729 1.46645 10.2584 1.56762 7.03538 3.03461ZM9.22502 21.8266C11.458 25.1508 13.7199 27.8174 17.0803 29.1688C17.2682 29.2049 17.5572 29.2482 17.7885 29.0748C20.5924 26.9574 28.3971 26.6467 33.1522 28.0053C33.4123 28.0775 33.6653 27.6801 33.5207 27.4127C32.2633 25.1219 30.8541 22.8094 28.1008 20.9088C22.4063 18.5529 14.2908 20.3451 9.22502 21.8266Z" fill="white"/>
</svg>
