<svg width="37" height="29" viewBox="0 0 37 29" fill="none" xmlns="http://www.w3.org/2000/svg">
<path d="M36.4899 5.46582L25.2353 0C24.0734 1.57461 21.5011 2.67344 18.501 2.67344C15.501 2.67344 12.9286 1.57461 11.7668 0L0.512164 5.46582C0.0555062 5.69238 -0.129469 6.23613 0.0959696 6.68359L3.40241 13.1689C3.63363 13.6164 4.18855 13.7977 4.64521 13.5768L7.91696 12.0078C8.5297 11.7133 9.24648 12.1494 9.24648 12.8234V27.1875C9.24648 28.19 10.0731 29 11.0962 29H25.8943C26.9174 29 27.744 28.19 27.744 27.1875V12.8178C27.744 12.1494 28.4608 11.7076 29.0735 12.0021L32.3453 13.5711C32.8019 13.7977 33.3569 13.6164 33.5881 13.1633L36.9003 6.68359C37.1315 6.23613 36.9466 5.68672 36.4899 5.46582Z" fill="white"/>
</svg>
