<svg width="12" height="15" viewBox="0 0 12 15" fill="none" xmlns="http://www.w3.org/2000/svg">
<path d="M9.39566 8.2433C9.41507 10.3342 11.2299 11.03 11.25 11.0388C11.2347 11.0879 10.96 12.0304 10.2939 13.0039C9.718 13.8456 9.12033 14.6842 8.17883 14.7015C7.2537 14.7186 6.95622 14.1529 5.89855 14.1529C4.84119 14.1529 4.51067 14.6842 3.63494 14.7186C2.72615 14.753 2.03411 13.8084 1.45347 12.9699C0.266981 11.2545 -0.639739 8.12269 0.577756 6.00866C1.18258 4.95883 2.26345 4.29403 3.43664 4.27698C4.32905 4.25996 5.17138 4.87737 5.71692 4.87737C6.26212 4.87737 7.28573 4.13488 8.36181 4.24392C8.81229 4.26267 10.0768 4.42589 10.8888 5.61443C10.8234 5.65499 9.37997 6.49527 9.39566 8.2433ZM7.65699 3.10907C8.13948 2.52505 8.46422 1.71203 8.37562 0.903076C7.68016 0.931028 6.83919 1.36651 6.34035 1.95022C5.89329 2.46712 5.50177 3.29445 5.60741 4.08739C6.38258 4.14736 7.17449 3.69347 7.65699 3.10907Z" fill="black"/>
</svg>
