<svg width="305" height="32" viewBox="0 0 305 32" fill="none" xmlns="http://www.w3.org/2000/svg">
<path d="M0.315918 4.16711V28.3081H1.235H2.15408V4.16711H1.235H0.315918Z" fill="black"/>
<path d="M5.90148 2.88568H4.97461V29.5894H5.90148H6.82056H7.73965V2.88568H6.82056H5.90148Z" fill="black"/>
<path d="M28.2021 0.74292H25.4371V10.7783C25.3926 10.9833 25.2344 11.1683 24.9959 11.2939C24.7574 11.4196 24.4575 11.476 24.1597 11.4513H16.4488C16.1511 11.476 15.8511 11.4196 15.6126 11.2939C15.3742 11.1683 15.2159 10.9833 15.1714 10.7783V0.74292H10.5604V31.7322H15.1714V20.8245C15.2141 20.6186 15.3715 20.4323 15.6102 20.3056C15.8489 20.1788 16.1499 20.1216 16.4488 20.1462H24.1753C24.4742 20.1216 24.7752 20.1788 25.0139 20.3056C25.2526 20.4323 25.41 20.6186 25.4527 20.8245V31.7429H30.0637V0.74292H28.2177H28.2021Z" fill="black"/>
<path d="M38.4697 4.16711V28.3081H39.3888H40.3157V4.16711H39.3888H38.4697Z" fill="black"/>
<path d="M33.8038 2.88568H32.8848V29.5894H33.8038H34.7307H35.6498V2.88568H34.7307H33.8038Z" fill="black"/>
<path d="M73.6781 12.9691H60.9584V5.42841H54.3159V26.7189H60.9584V18.5125H73.6781V26.7189H80.2564V5.42841H73.6781V12.9691Z" fill="black"/>
<path d="M98.2309 5.0827C87.811 5.0827 82.6075 8.44976 82.6075 16.0544C82.6075 23.6591 87.811 27.0646 98.2309 27.0646C108.651 27.0646 113.854 23.6591 113.854 16.0544C113.854 8.44976 108.599 5.0827 98.2309 5.0827ZM98.2309 21.5339C91.5755 21.5339 89.2372 20.6377 89.2372 16.0544C89.2372 11.4711 91.6269 10.6134 98.2309 10.6134C104.835 10.6134 107.225 11.4711 107.225 16.0544C107.225 20.6377 104.861 21.5339 98.2309 21.5339Z" fill="black"/>
<path d="M122.771 5.42841H116.167V26.7189H139.319V21.2523H122.771V5.42841Z" fill="black"/>
<path d="M155.662 5.0827C145.242 5.0827 140.039 8.44976 140.039 16.0544C140.039 23.6591 145.242 27.0646 155.662 27.0646C166.082 27.0646 171.273 23.6591 171.273 16.0544C171.273 8.44976 166.043 5.0827 155.662 5.0827ZM155.662 21.5339C149.019 21.5339 146.668 20.6377 146.668 16.0544C146.668 11.4711 149.071 10.6134 155.662 10.6134C162.253 10.6134 164.656 11.4711 164.656 16.0544C164.656 20.6377 162.304 21.5339 155.662 21.5339Z" fill="black"/>
<path d="M172.956 15.8624C172.956 22.046 178.417 26.7188 185.804 26.7188H200.464V13.4171H186.794V18.154H193.937V21.2522H185.804C182.13 21.2522 179.509 19.2422 179.509 16.1312C179.509 13.0202 182.22 10.9462 185.804 10.9462H200.503V5.40271H185.804C178.391 5.42831 172.956 9.62758 172.956 15.8624Z" fill="black"/>
<path d="M246.294 5.0827C245.436 5.09115 244.594 5.31353 243.844 5.72947C243.095 6.14541 242.462 6.74173 242.003 7.46402L234.705 19.8055H242.529L246.165 12.585L250.02 18.218C250.727 19.2422 251.613 20.5481 252.191 21.3035C251.163 21.3035 249.622 21.3035 248.337 21.3035H228.281C227.76 20.7732 227.202 20.2811 226.61 19.8312C228.202 19.5664 229.643 18.7379 230.67 17.4983C231.697 16.2587 232.24 14.6911 232.199 13.0842C232.199 7.00307 226.071 5.47958 221.214 5.47958H203.163V26.7701H209.779V21.137H219.929L224.696 26.7701H263.857L250.508 7.56638C250.081 6.82445 249.469 6.2056 248.73 5.77026C247.991 5.33492 247.152 5.09798 246.294 5.0827V5.0827ZM209.779 15.8368V10.9719H221.78C224.054 10.9719 225.416 11.7912 225.416 13.4428C225.416 15.0943 223.822 15.8368 221.78 15.8368H209.779Z" fill="black"/>
<path d="M298.971 8.00158C298.782 7.16429 298.31 6.41714 297.634 5.88563C296.958 5.35411 296.119 5.07055 295.258 5.08258C294.499 5.07261 293.753 5.27961 293.109 5.67895C292.465 6.07829 291.948 6.65326 291.622 7.33583L288.204 13.3786C286.316 16.6561 285.493 18.218 284.787 19.7799C284.054 18.282 283.219 16.6945 281.33 13.3786L277.913 7.36146C277.601 6.67592 277.093 6.09689 276.454 5.69629C275.814 5.29569 275.071 5.09117 274.315 5.10821C273.45 5.09265 272.607 5.37441 271.926 5.90602C271.245 6.43763 270.768 7.1867 270.577 8.02721L265.052 26.7444H271.476L273.493 19.3317C274.136 16.9377 274.611 15.1582 274.932 13.4683C275.6 14.9021 276.371 16.4 277.926 19.3317L280.804 24.7088C281.15 25.4202 281.691 26.0202 282.363 26.4399C283.036 26.8596 283.813 27.0822 284.607 27.0822C285.4 27.0822 286.178 26.8596 286.85 26.4399C287.523 26.0202 288.063 25.4202 288.41 24.7088L291.288 19.3574C292.753 16.592 293.549 14.9661 294.256 13.4683C294.603 15.1966 295.052 16.9121 295.72 19.3317L297.738 26.7444H304.316L298.971 8.00158Z" fill="black"/>
</svg>
