<svg width="681" height="62" viewBox="0 0 681 62" fill="none" xmlns="http://www.w3.org/2000/svg">
<path d="M0.31543 7.65991V55.1632H1.92383H3.53223V7.65991H1.92383H0.31543Z" fill="#DCED71"/>
<path d="M10.0903 5.13818H8.46826V57.6842H10.0903H11.6987H13.3071V5.13818H11.6987H10.0903Z" fill="#DCED71"/>
<path d="M49.117 0.921875H44.2781V20.669C44.2003 21.0724 43.9234 21.4363 43.506 21.6835C43.0887 21.9308 42.5638 22.0419 42.0427 21.9933H28.5485C28.0275 22.0419 27.5026 21.9308 27.0853 21.6835C26.6679 21.4363 26.3909 21.0724 26.3131 20.669V0.921875H18.2439V61.9007H26.3131V40.4373C26.3877 40.0321 26.6634 39.6655 27.0811 39.4161C27.4988 39.1667 28.0255 39.0541 28.5485 39.1025H42.07C42.5931 39.0541 43.1197 39.1667 43.5375 39.4161C43.9552 39.6655 44.2308 40.0321 44.3054 40.4373V61.9219H52.3747V0.921875H49.1442H49.117Z" fill="#DCED71"/>
<path d="M67.085 7.65991V55.1632H68.6934H70.3154V7.65991H68.6934H67.085Z" fill="#DCED71"/>
<path d="M58.9194 5.13818H57.311V57.6842H58.9194H60.5415H62.1499V5.13818H60.5415H58.9194Z" fill="#DCED71"/>
<path d="M145.236 24.2051H115.726V6.72449H100.315V56.0798H115.726V37.0559H145.236V56.0798H160.497V6.72449H145.236V24.2051Z" fill="#DCED71"/>
<path d="M202.199 5.9231C178.025 5.9231 165.953 13.7286 165.953 31.3576C165.953 48.9866 178.025 56.8811 202.199 56.8811C226.373 56.8811 238.446 48.9866 238.446 31.3576C238.446 13.7286 226.254 5.9231 202.199 5.9231ZM202.199 44.06C186.759 44.06 181.334 41.9824 181.334 31.3576C181.334 20.7327 186.878 18.7442 202.199 18.7442C217.52 18.7442 223.065 20.7327 223.065 31.3576C223.065 41.9824 217.58 44.06 202.199 44.06Z" fill="#DCED71"/>
<path d="M259.131 6.72449H243.81V56.0798H297.524V43.4071H259.131V6.72449Z" fill="#DCED71"/>
<path d="M335.439 5.9231C311.265 5.9231 299.193 13.7286 299.193 31.3576C299.193 48.9866 311.265 56.8811 335.439 56.8811C359.613 56.8811 371.656 48.9866 371.656 31.3576C371.656 13.7286 359.524 5.9231 335.439 5.9231ZM335.439 44.06C320.029 44.06 314.574 41.9824 314.574 31.3576C314.574 20.7327 320.148 18.7442 335.439 18.7442C350.731 18.7442 356.305 20.7327 356.305 31.3576C356.305 41.9824 350.85 44.06 335.439 44.06Z" fill="#DCED71"/>
<path d="M375.562 30.9125C375.562 45.2472 388.23 56.0797 405.369 56.0797H439.38V25.2438H407.664V36.2248H424.238V43.407H405.369C396.844 43.407 390.764 38.7475 390.764 31.5356C390.764 24.3237 397.053 19.5159 405.369 19.5159H439.469V6.66504H405.369C388.17 6.7244 375.562 16.4591 375.562 30.9125Z" fill="#DCED71"/>
<path d="M545.704 5.9231C543.714 5.94268 541.76 6.4582 540.021 7.42242C538.282 8.38663 536.813 9.76901 535.748 11.4434L518.817 40.0533H536.97L545.406 23.3148L554.348 36.3732C555.988 38.7475 558.044 41.7748 559.386 43.5258C557.001 43.5258 553.424 43.5258 550.443 43.5258H503.913C502.706 42.2965 501.411 41.1558 500.038 40.1127C503.73 39.4988 507.074 37.5784 509.457 34.7047C511.839 31.831 513.099 28.1972 513.005 24.4721C513.005 10.3749 498.787 6.84312 487.519 6.84312H445.639V56.1984H460.99V43.14H484.538L495.597 56.1984H586.451L555.481 11.6807C554.491 9.96078 553.07 8.52617 551.356 7.51697C549.642 6.50777 547.695 5.95851 545.704 5.9231V5.9231ZM460.99 30.8531V19.5753H488.831C494.107 19.5753 497.266 21.4747 497.266 25.3032C497.266 29.1317 493.57 30.8531 488.831 30.8531H460.99Z" fill="#DCED71"/>
<path d="M667.916 12.6895C667.478 10.7485 666.383 9.01648 664.814 7.78433C663.246 6.55218 661.299 5.89484 659.301 5.92273C657.541 5.89961 655.811 6.37946 654.316 7.30521C652.821 8.23096 651.623 9.56383 650.866 11.1462L642.937 25.1545C638.555 32.7522 636.647 36.3729 635.008 39.9937C633.309 36.5213 631.372 32.8412 626.99 25.1545L619.061 11.2056C618.337 9.61637 617.16 8.27409 615.676 7.34542C614.192 6.41676 612.467 5.94264 610.715 5.98214C608.708 5.94607 606.75 6.59924 605.171 7.83161C603.591 9.06398 602.486 10.8004 602.041 12.7489L589.223 56.1388H604.127L608.807 38.9549C610.297 33.405 611.4 29.2798 612.145 25.3623C613.695 28.6862 615.484 32.1585 619.091 38.9549L625.768 51.4198C626.571 53.0691 627.825 54.4599 629.385 55.4329C630.946 56.4059 632.75 56.9219 634.591 56.9219C636.432 56.9219 638.236 56.4059 639.796 55.4329C641.356 54.4599 642.61 53.0691 643.414 51.4198L650.091 39.0143C653.489 32.6037 655.337 28.8346 656.976 25.3623C657.781 29.3688 658.824 33.3456 660.374 38.9549L665.054 56.1388H680.316L667.916 12.6895Z" fill="#DCED71"/>
</svg>
