<svg width="18" height="14" viewBox="0 0 18 14" fill="none" xmlns="http://www.w3.org/2000/svg">
<path d="M15.1812 1.56157C14.051 1.05187 12.8395 0.67514 11.5727 0.460919C11.5614 0.458754 11.5497 0.460149 11.5393 0.464914C11.5288 0.469678 11.5201 0.477576 11.5143 0.487512C11.3592 0.760089 11.1863 1.1154 11.0652 1.3961C9.72159 1.19535 8.35562 1.19535 7.01201 1.3961C6.87707 1.08501 6.72491 0.781677 6.55623 0.487512C6.55052 0.477453 6.54187 0.469377 6.53144 0.464362C6.52101 0.459346 6.50931 0.45763 6.49788 0.459442C5.23176 0.673662 4.02031 1.05039 2.88937 1.56083C2.87964 1.56491 2.87139 1.57187 2.86573 1.58077C0.566929 4.96029 -0.0631745 8.25632 0.246337 11.511C0.247198 11.519 0.249673 11.5267 0.253609 11.5337C0.257546 11.5406 0.262863 11.5468 0.269236 11.5516C1.61099 12.5285 3.10754 13.2726 4.69621 13.7529C4.70729 13.7563 4.71913 13.7563 4.7302 13.7529C4.74127 13.7495 4.75105 13.7428 4.75826 13.7337C5.10012 13.2765 5.40306 12.7915 5.6639 12.2837C5.66752 12.2767 5.6696 12.2691 5.67001 12.2613C5.67042 12.2534 5.66915 12.2456 5.66628 12.2383C5.66341 12.2311 5.65901 12.2245 5.65337 12.219C5.64773 12.2136 5.64099 12.2094 5.63361 12.2068C5.15642 12.0271 4.69406 11.8103 4.25078 11.5583C4.24282 11.5537 4.2361 11.5473 4.23125 11.5395C4.22639 11.5317 4.22354 11.5228 4.22296 11.5137C4.22237 11.5045 4.22407 11.4954 4.22789 11.4871C4.23172 11.4787 4.23755 11.4715 4.24487 11.4659C4.33795 11.3972 4.43102 11.3256 4.51966 11.2539C4.52764 11.2475 4.53725 11.2434 4.54743 11.2421C4.5576 11.2408 4.56793 11.2423 4.57728 11.2465C7.47812 12.5496 10.6198 12.5496 13.4866 11.2465C13.496 11.2421 13.5064 11.2403 13.5168 11.2415C13.5271 11.2427 13.5369 11.2467 13.545 11.2532C13.6336 11.3256 13.726 11.3972 13.8198 11.4659C13.8272 11.4713 13.8331 11.4785 13.8371 11.4868C13.841 11.495 13.8428 11.5041 13.8424 11.5133C13.842 11.5224 13.8393 11.5313 13.8345 11.5392C13.8298 11.547 13.8232 11.5536 13.8153 11.5583C13.3736 11.8124 12.9141 12.0273 12.4318 12.2061C12.4244 12.2088 12.4176 12.213 12.412 12.2185C12.4063 12.224 12.4019 12.2307 12.3991 12.238C12.3962 12.2454 12.3949 12.2532 12.3954 12.2611C12.3958 12.269 12.3979 12.2767 12.4015 12.2837C12.6674 12.7911 12.9718 13.2743 13.3064 13.733C13.3133 13.7424 13.323 13.7494 13.3341 13.7531C13.3453 13.7568 13.3572 13.757 13.3684 13.7537C14.9598 13.2747 16.4588 12.5302 17.8021 11.5516C17.8086 11.547 17.8141 11.5411 17.8182 11.5342C17.8223 11.5274 17.8248 11.5197 17.8257 11.5117C18.195 7.74884 17.2067 4.4794 15.2041 1.58225C15.1992 1.57284 15.1911 1.5655 15.1812 1.56157ZM6.09751 9.52909C5.22437 9.52909 4.50415 8.73943 4.50415 7.771C4.50415 6.80184 5.21034 6.01292 6.09751 6.01292C6.99132 6.01292 7.7049 6.80849 7.69086 7.771C7.69086 8.74017 6.98468 9.52909 6.09751 9.52909ZM11.9886 9.52909C11.1147 9.52909 10.3952 8.73943 10.3952 7.771C10.3952 6.80184 11.1007 6.01292 11.9886 6.01292C12.8824 6.01292 13.596 6.80849 13.5819 7.771C13.5819 8.74017 12.8831 9.52909 11.9886 9.52909Z" fill="white"/>
</svg>
