<svg width="31" height="22" viewBox="0 0 31 22" fill="none" xmlns="http://www.w3.org/2000/svg">
<path d="M30.558 12.159C30.558 11.1654 29.886 10.2694 28.5535 9.48254L27.9792 10.4704C28.6282 10.8552 29.4093 11.464 29.4093 12.159C29.4093 14.0601 23.7463 16.1796 15.6249 16.1796C7.50356 16.1796 1.84059 14.0603 1.84059 12.159C1.84059 11.4641 2.6217 10.8552 3.28221 10.4704L2.70786 9.48254C1.36391 10.2694 0.691895 11.1654 0.691895 12.159C0.691895 13.9509 2.88015 15.3007 6.02184 16.1796C7.2739 18.5 9.32578 20.2892 11.7955 21.2151C14.2637 22.1398 16.9861 22.1398 19.4544 21.2151C21.9241 20.289 23.976 18.4999 25.228 16.1796C28.3697 15.3009 30.558 13.9511 30.558 12.159ZM7.61274 16.5527C8.54316 16.748 9.5253 16.9088 10.5419 17.0294C10.9239 18.1709 11.5068 19.2363 12.265 20.1711C10.3797 19.4719 8.7557 18.2083 7.61285 16.5527H7.61274ZM15.0791 20.6994C13.7983 20.3892 12.6611 19.0625 11.8685 17.1614C12.9253 17.2533 14.005 17.3107 15.0791 17.3222V20.6994ZM16.2278 20.6994V17.328C17.3018 17.328 18.3816 17.259 19.4384 17.1671C18.6171 19.051 17.4799 20.3892 16.1991 20.6994H16.2278ZM18.9674 20.1997C19.7255 19.2649 20.3085 18.1995 20.6904 17.058C21.707 16.9374 22.6892 16.7766 23.6196 16.5813C22.4767 18.2368 20.8527 19.5004 18.9675 20.1997H18.9674Z" fill="white"/>
<path d="M26.262 13.4054C26.4444 12.62 26.5363 11.8159 26.5377 11.0104C26.5377 7.11221 24.4571 3.50953 21.0813 1.55951C17.7056 -0.388976 13.5444 -0.388976 10.1686 1.55951C6.79282 3.50942 4.71216 7.11184 4.71216 11.0104C4.71359 11.8159 4.80549 12.62 4.98785 13.4054C5.3669 13.5605 5.80917 13.7156 6.30309 13.8649C6.07335 13.1183 5.93408 12.3472 5.88956 11.5675H9.55392C9.57976 12.597 9.68889 13.6222 9.88129 14.6346C10.2647 14.692 10.6667 14.7437 11.0874 14.7896C10.8605 13.7357 10.7327 12.6631 10.7026 11.5848H15.0503V15.0308H16.199V11.5848H20.5468C20.5152 12.6631 20.3846 13.7357 20.1563 14.7896C20.5741 14.7437 20.9761 14.692 21.3624 14.6346C21.5562 13.628 21.6682 12.6086 21.6955 11.5848H25.3886C25.3441 12.3644 25.2048 13.1355 24.9751 13.8822C25.4403 13.7156 25.8825 13.5605 26.2616 13.4054H26.262ZM9.55432 10.4361H5.88997C5.9876 8.71303 6.54327 7.0474 7.49814 5.61155C8.35104 5.91308 9.22692 6.14712 10.1172 6.31224C9.77399 7.66053 9.5859 9.0447 9.55432 10.4361V10.4361ZM10.456 5.20941C9.70363 5.06296 8.9613 4.87199 8.2333 4.63507C9.32168 3.3672 10.7188 2.40086 12.2881 1.82652C11.4682 2.82733 10.8465 3.97603 10.4559 5.20941H10.456ZM15.0508 10.4361H10.7031C10.7418 9.10932 10.9342 7.78977 11.2774 6.50735C12.5324 6.68396 13.7959 6.7816 15.0624 6.80027L15.0508 10.4361ZM15.0508 5.65162C13.8978 5.63439 12.7477 5.54967 11.6047 5.3989C12.4031 3.20488 13.6437 1.65986 15.0508 1.32094V5.65162ZM16.1995 1.32113C17.5952 1.65999 18.8358 3.20499 19.6456 5.39909C18.5026 5.54842 17.3525 5.6317 16.1995 5.6518V1.32113ZM16.1995 10.4361V6.80046C17.4659 6.78179 18.7295 6.68415 19.9845 6.50754C20.3277 7.78978 20.5201 9.10932 20.5589 10.4363L16.1995 10.4361ZM18.9678 1.84971C20.5372 2.42406 21.9343 3.3904 23.0226 4.65826C22.2932 4.89087 21.548 5.07609 20.7942 5.20964C20.4022 3.98485 19.7833 2.84476 18.9677 1.84971H18.9678ZM21.696 10.4651C21.6615 9.07521 21.4691 7.69387 21.1217 6.34708C22.0119 6.17909 22.8878 5.94359 23.7407 5.64063C24.7056 7.06501 25.2742 8.72056 25.3891 10.4365L21.696 10.4651Z" fill="white"/>
</svg>
