<svg width="14" height="15" viewBox="0 0 14 15" fill="none" xmlns="http://www.w3.org/2000/svg">
<path d="M9.69707 4.66436C8.97003 3.96247 8.04529 3.60508 7.01531 3.60508C5.18814 3.60508 3.64158 4.85111 3.08993 6.52535C2.94962 6.95035 2.8699 7.40434 2.8699 7.8712C2.8699 8.33804 2.94961 8.79201 3.08991 9.217C3.64157 10.8912 5.18814 12.1373 7.01531 12.1373C7.95919 12.1373 8.76276 11.8861 9.39095 11.4611C10.1339 10.9589 10.6282 10.2087 10.7908 9.32328H7.0153V6.58332H13.6224C13.7054 7.04695 13.75 7.52991 13.75 8.03218C13.75 10.1894 12.9847 12.0053 11.6582 13.2384C10.4975 14.3202 8.90942 14.9545 7.01531 14.9545C4.27297 14.9545 1.90053 13.3672 0.746187 11.0523C0.27106 10.096 0 9.01419 0 7.8712C0 6.7282 0.271046 5.64638 0.746174 4.69013C1.90051 2.37517 4.27296 0.787842 7.01531 0.787842C8.90625 0.787842 10.4943 1.48974 11.7092 2.63273L9.69707 4.66436Z" fill="black"/>
</svg>
