<svg width="751" height="128" viewBox="0 0 751 128" fill="none" xmlns="http://www.w3.org/2000/svg">
<mask id="mask0_1062_3903" style="mask-type:alpha" maskUnits="userSpaceOnUse" x="0" y="0" width="751" height="128">
<path fill-rule="evenodd" clip-rule="evenodd" d="M28.4061 52.0205C28.1392 55.8773 27.998 59.884 27.998 64C27.998 68.1156 28.1392 72.1219 28.406 75.9784C36.9863 78.1824 47.6033 79.6281 59.2703 79.9382C59.718 75.174 59.9713 70.1449 59.9984 64.9342C59.9969 64.6233 59.9961 64.3119 59.9961 64C59.9961 63.6881 59.9969 63.3767 59.9984 63.0658C59.9713 57.8547 59.718 52.8253 59.2702 48.0606C47.6033 48.3708 36.9863 49.8165 28.4061 52.0205ZM20.2379 54.578C20.0797 57.6553 19.998 60.8019 19.998 64C19.998 67.1977 20.0797 70.344 20.2378 73.4209C16.3188 71.9265 13.2842 70.293 11.1911 68.6433C8.61086 66.6097 8 65.0103 8 63.9994C8 62.9886 8.61086 61.3892 11.1911 59.3556C13.2842 57.7059 16.3189 56.0724 20.2379 54.578ZM20.9062 45.865C20.7058 45.9301 20.5066 45.9956 20.3086 46.0616C14.6467 47.949 9.77625 50.2847 6.2391 53.0724C2.74701 55.8247 0 59.487 0 63.9994C0 68.5119 2.74701 72.1742 6.2391 74.9265C9.77625 77.7142 14.6467 80.0499 20.3086 81.9373C20.5065 82.0033 20.7057 82.0688 20.9061 82.1339C21.9034 91.8234 23.6845 100.561 26.0616 107.691C27.949 113.353 30.2847 118.224 33.0724 121.761C35.8247 125.253 39.487 128 43.9995 128C48.5119 128 52.1742 125.253 54.9265 121.761C57.7142 118.224 60.0499 113.353 61.9373 107.691C62.6853 105.447 63.3743 103.044 63.9985 100.503C64.6226 103.044 65.3116 105.447 66.0597 107.691C67.9471 113.353 70.2827 118.224 73.0705 121.761C75.8228 125.253 79.4851 128 83.9975 128C88.5099 128 92.1722 125.253 94.9245 121.761C97.7123 118.224 100.048 113.353 101.935 107.691C104.312 100.561 106.093 91.824 107.091 82.1349C107.292 82.0695 107.492 82.0036 107.691 81.9373C113.353 80.0499 118.224 77.7142 121.761 74.9265C125.253 72.1742 128 68.5119 128 63.9994C128 59.487 125.253 55.8247 121.761 53.0724C118.224 50.2847 113.353 47.949 107.691 46.0616C107.492 45.9953 107.292 45.9294 107.091 45.864C106.093 36.1753 104.312 27.4388 101.935 20.3086C100.048 14.6467 97.7123 9.77625 94.9245 6.2391C92.1722 2.74701 88.5099 0 83.9975 0C79.4851 0 75.8228 2.74701 73.0705 6.2391C70.2827 9.77625 67.9471 14.6467 66.0597 20.3086C65.3116 22.5525 64.6226 24.9556 63.9985 27.4973C63.3743 24.9556 62.6853 22.5525 61.9373 20.3086C60.0499 14.6467 57.7142 9.77625 54.9265 6.2391C52.1742 2.74701 48.5119 0 43.9995 0C39.487 0 35.8247 2.74701 33.0724 6.2391C30.2847 9.77625 27.949 14.6467 26.0616 20.3086C23.6846 27.4391 21.9036 36.1759 20.9062 45.865ZM29.2144 43.5935C37.7165 41.6497 47.6507 40.4121 58.3058 40.085C57.3331 33.5719 55.9801 27.735 54.3479 22.8386C52.6158 17.6426 50.6414 13.7263 48.6433 11.1911C46.6097 8.61086 45.0103 8 43.9995 8C42.9886 8 41.3892 8.61086 39.3556 11.1911C37.3575 13.7263 35.3831 17.6426 33.651 22.8386C31.7309 28.5987 30.1971 35.6605 29.2144 43.5935ZM68.7267 48.0606C68.279 52.8252 68.0256 57.8547 67.9985 63.0658C68.0001 63.3767 68.0008 63.6881 68.0008 64C68.0008 64.3119 68.0001 64.6233 67.9985 64.9342C68.0256 70.1449 68.2789 75.174 68.7266 79.9383C80.3934 79.6284 91.0104 78.1829 99.5909 75.9792C99.8577 72.1224 99.9989 68.1159 99.9989 64C99.9989 59.8837 99.8577 55.8768 99.5908 52.0197C91.0104 49.816 80.3934 48.3705 68.7267 48.0606ZM98.7825 43.5928C90.2802 41.6492 80.3461 40.4119 69.6911 40.0849C70.6638 33.5719 72.0168 27.7349 73.6491 22.8386C75.3812 17.6426 77.3555 13.7263 79.3536 11.1911C81.3872 8.61086 82.9867 8 83.9975 8C85.0083 8 86.6078 8.61086 88.6414 11.1911C90.6395 13.7263 92.6138 17.6426 94.3459 22.8386C96.266 28.5985 97.7998 35.6601 98.7825 43.5928ZM107.759 54.5768C107.917 57.6544 107.999 60.8015 107.999 64C107.999 67.1981 107.917 70.3448 107.759 73.4221C111.68 71.9274 114.715 70.2935 116.809 68.6433C119.389 66.6097 120 65.0103 120 63.9994C120 62.9886 119.389 61.3892 116.809 59.3556C114.715 57.7054 111.68 56.0715 107.759 54.5768ZM98.7826 84.4061C90.2803 86.3497 80.346 87.5871 69.691 87.914C70.6637 94.4275 72.0168 100.265 73.6491 105.161C75.3812 110.357 77.3555 114.274 79.3536 116.809C81.3872 119.389 82.9867 120 83.9975 120C85.0083 120 86.6078 119.389 88.6414 116.809C90.6395 114.274 92.6138 110.357 94.3459 105.161C96.2661 99.4012 97.7999 92.3393 98.7826 84.4061ZM58.306 87.9139C47.6507 87.5868 37.7165 86.3492 29.2142 84.4054C30.197 92.3388 31.7308 99.401 33.651 105.161C35.3831 110.357 37.3575 114.274 39.3556 116.809C41.3892 119.389 42.9886 120 43.9995 120C45.0103 120 46.6097 119.389 48.6433 116.809C50.6414 114.274 52.6158 110.357 54.3479 105.161C55.9802 100.265 57.3333 94.4274 58.306 87.9139ZM216.141 57.4715H183.707V36.1024H168V92H183.707V68.89H216.141V92H231.952V36.1024H216.141V57.4715ZM269.045 36.1024H280.977C300.718 36.1024 311.056 45.9677 311.056 64.0939C311.056 82.2201 300.718 92 280.977 92H269.045C249.304 92 238.965 82.3225 238.965 64.0939C238.965 45.8653 249.304 36.1024 269.045 36.1024ZM270.898 80.9912H278.206C292.492 80.9912 295.263 72.8839 295.263 64.0939C295.263 55.3039 292.492 47.1966 278.206 47.1966H270.898C257.443 47.1966 254.758 55.3209 254.758 64.0939C254.758 72.8668 257.46 80.9912 270.898 80.9912ZM419.755 36.1024H407.824C388.083 36.1024 377.744 45.8824 377.744 64.0939C377.744 82.3054 388.083 92 407.824 92H419.755C439.497 92 449.835 82.2201 449.835 64.0939C449.835 45.9677 439.514 36.1024 419.755 36.1024ZM416.985 80.9912H409.677C396.239 80.9912 393.537 72.8668 393.537 64.0939C393.537 55.3209 396.222 47.1966 409.677 47.1966H416.985C431.271 47.1966 434.042 55.3039 434.042 64.0939C434.042 72.8839 431.271 80.9912 416.985 80.9912ZM503.743 68.89H484.92H484.902V58.7857H517.926V92H480.625C464.572 92 455.758 83.0564 455.758 64.0939C455.758 45.1314 464.572 36.1024 480.625 36.1024H517.684V47.7598H483.067C473.231 47.7598 471.464 53.7166 471.464 64.0768C471.464 74.4371 473.231 80.5645 483.067 80.5645H503.743V68.89ZM591.316 54.8173C591.313 41.9882 585.268 36.1024 569.306 36.1024H527.797V92H543.174V73.4471H562.76L575.869 92H594.346L578.969 72.1158C587.625 69.7099 591.314 64.5067 591.316 54.8173ZM568.63 62.37H543.174V47.7769H568.63C573.756 47.7769 575.696 49.1082 575.696 54.9796C575.696 60.851 573.756 62.3529 568.63 62.3529V62.37ZM619.577 42.8955C621.619 38.7164 625.806 36.1056 630.513 36.1024C635.237 36.1056 639.424 38.6993 641.449 42.8955L665.242 92H649.882L644.548 80.9912H616.46L611.126 92H595.783L619.577 42.8955ZM630.521 52.0098L621.378 70.8869H639.665L630.521 52.0098ZM332.755 36.1024H318.901V80.0183C318.901 86.6065 324.338 91.9659 331.023 91.9659H373.709V78.3115H332.755V36.1024ZM728.467 41.2228C731.497 36.8705 736.952 34.993 742.061 36.5462V36.5291C747.169 38.0823 750.598 42.6736 750.598 47.9476V91.9829H736.744V53.4605L720.189 77.3386C717.938 80.5986 714.18 82.5443 710.18 82.5443C706.18 82.5443 702.422 80.5986 700.171 77.3386L683.633 53.4776V92.0171H669.779V47.9646C669.779 42.6906 673.208 38.0994 678.317 36.5462C683.443 34.993 688.897 36.8705 691.911 41.2228L710.18 67.5928L728.467 41.2228Z" fill="white"/>
</mask>
<g mask="url(#mask0_1062_3903)">
<g filter="url(#filter0_d_1062_3903)">
<path fill-rule="evenodd" clip-rule="evenodd" d="M28.4061 52.0205C28.1392 55.8773 27.998 59.884 27.998 64C27.998 68.1156 28.1392 72.1219 28.406 75.9784C36.9863 78.1824 47.6033 79.6281 59.2703 79.9382C59.718 75.174 59.9713 70.1449 59.9984 64.9342C59.9969 64.6233 59.9961 64.3119 59.9961 64C59.9961 63.6881 59.9969 63.3767 59.9984 63.0658C59.9713 57.8547 59.718 52.8253 59.2702 48.0606C47.6033 48.3708 36.9863 49.8165 28.4061 52.0205ZM20.2379 54.578C20.0797 57.6553 19.998 60.8019 19.998 64C19.998 67.1977 20.0797 70.344 20.2378 73.4209C16.3188 71.9265 13.2842 70.293 11.1911 68.6433C8.61086 66.6097 8 65.0103 8 63.9994C8 62.9886 8.61086 61.3892 11.1911 59.3556C13.2842 57.7059 16.3189 56.0724 20.2379 54.578ZM20.9062 45.865C20.7058 45.9301 20.5066 45.9956 20.3086 46.0616C14.6467 47.949 9.77625 50.2847 6.2391 53.0724C2.74701 55.8247 0 59.487 0 63.9994C0 68.5119 2.74701 72.1742 6.2391 74.9265C9.77625 77.7142 14.6467 80.0499 20.3086 81.9373C20.5065 82.0033 20.7057 82.0688 20.9061 82.1339C21.9034 91.8234 23.6845 100.561 26.0616 107.691C27.949 113.353 30.2847 118.224 33.0724 121.761C35.8247 125.253 39.487 128 43.9995 128C48.5119 128 52.1742 125.253 54.9265 121.761C57.7142 118.224 60.0499 113.353 61.9373 107.691C62.6853 105.447 63.3743 103.044 63.9985 100.503C64.6226 103.044 65.3116 105.447 66.0597 107.691C67.9471 113.353 70.2827 118.224 73.0705 121.761C75.8228 125.253 79.4851 128 83.9975 128C88.5099 128 92.1722 125.253 94.9245 121.761C97.7123 118.224 100.048 113.353 101.935 107.691C104.312 100.561 106.093 91.824 107.091 82.1349C107.292 82.0695 107.492 82.0036 107.691 81.9373C113.353 80.0499 118.224 77.7142 121.761 74.9265C125.253 72.1742 128 68.5119 128 63.9994C128 59.487 125.253 55.8247 121.761 53.0724C118.224 50.2847 113.353 47.949 107.691 46.0616C107.492 45.9953 107.292 45.9294 107.091 45.864C106.093 36.1753 104.312 27.4388 101.935 20.3086C100.048 14.6467 97.7123 9.77625 94.9245 6.2391C92.1722 2.74701 88.5099 0 83.9975 0C79.4851 0 75.8228 2.74701 73.0705 6.2391C70.2827 9.77625 67.9471 14.6467 66.0597 20.3086C65.3116 22.5525 64.6226 24.9556 63.9985 27.4973C63.3743 24.9556 62.6853 22.5525 61.9373 20.3086C60.0499 14.6467 57.7142 9.77625 54.9265 6.2391C52.1742 2.74701 48.5119 0 43.9995 0C39.487 0 35.8247 2.74701 33.0724 6.2391C30.2847 9.77625 27.949 14.6467 26.0616 20.3086C23.6846 27.4391 21.9036 36.1759 20.9062 45.865ZM29.2144 43.5935C37.7165 41.6497 47.6507 40.4121 58.3058 40.085C57.3331 33.5719 55.9801 27.735 54.3479 22.8386C52.6158 17.6426 50.6414 13.7263 48.6433 11.1911C46.6097 8.61086 45.0103 8 43.9995 8C42.9886 8 41.3892 8.61086 39.3556 11.1911C37.3575 13.7263 35.3831 17.6426 33.651 22.8386C31.7309 28.5987 30.1971 35.6605 29.2144 43.5935ZM68.7267 48.0606C68.279 52.8252 68.0256 57.8547 67.9985 63.0658C68.0001 63.3767 68.0008 63.6881 68.0008 64C68.0008 64.3119 68.0001 64.6233 67.9985 64.9342C68.0256 70.1449 68.2789 75.174 68.7266 79.9383C80.3934 79.6284 91.0104 78.1829 99.5909 75.9792C99.8577 72.1224 99.9989 68.1159 99.9989 64C99.9989 59.8837 99.8577 55.8768 99.5908 52.0197C91.0104 49.816 80.3934 48.3705 68.7267 48.0606ZM98.7825 43.5928C90.2802 41.6492 80.3461 40.4119 69.6911 40.0849C70.6638 33.5719 72.0168 27.7349 73.6491 22.8386C75.3812 17.6426 77.3555 13.7263 79.3536 11.1911C81.3872 8.61086 82.9867 8 83.9975 8C85.0083 8 86.6078 8.61086 88.6414 11.1911C90.6395 13.7263 92.6138 17.6426 94.3459 22.8386C96.266 28.5985 97.7998 35.6601 98.7825 43.5928ZM107.759 54.5768C107.917 57.6544 107.999 60.8015 107.999 64C107.999 67.1981 107.917 70.3448 107.759 73.4221C111.68 71.9274 114.715 70.2935 116.809 68.6433C119.389 66.6097 120 65.0103 120 63.9994C120 62.9886 119.389 61.3892 116.809 59.3556C114.715 57.7054 111.68 56.0715 107.759 54.5768ZM98.7826 84.4061C90.2803 86.3497 80.346 87.5871 69.691 87.914C70.6637 94.4275 72.0168 100.265 73.6491 105.161C75.3812 110.357 77.3555 114.274 79.3536 116.809C81.3872 119.389 82.9867 120 83.9975 120C85.0083 120 86.6078 119.389 88.6414 116.809C90.6395 114.274 92.6138 110.357 94.3459 105.161C96.2661 99.4012 97.7999 92.3393 98.7826 84.4061ZM58.306 87.9139C47.6507 87.5868 37.7165 86.3492 29.2142 84.4054C30.197 92.3388 31.7308 99.401 33.651 105.161C35.3831 110.357 37.3575 114.274 39.3556 116.809C41.3892 119.389 42.9886 120 43.9995 120C45.0103 120 46.6097 119.389 48.6433 116.809C50.6414 114.274 52.6158 110.357 54.3479 105.161C55.9802 100.265 57.3333 94.4274 58.306 87.9139ZM216.141 57.4715H183.707V36.1024H168V92H183.707V68.89H216.141V92H231.952V36.1024H216.141V57.4715ZM269.045 36.1024H280.977C300.718 36.1024 311.056 45.9677 311.056 64.0939C311.056 82.2201 300.718 92 280.977 92H269.045C249.304 92 238.965 82.3225 238.965 64.0939C238.965 45.8653 249.304 36.1024 269.045 36.1024ZM270.898 80.9912H278.206C292.492 80.9912 295.263 72.8839 295.263 64.0939C295.263 55.3039 292.492 47.1966 278.206 47.1966H270.898C257.443 47.1966 254.758 55.3209 254.758 64.0939C254.758 72.8668 257.46 80.9912 270.898 80.9912ZM419.755 36.1024H407.824C388.083 36.1024 377.744 45.8824 377.744 64.0939C377.744 82.3054 388.083 92 407.824 92H419.755C439.497 92 449.835 82.2201 449.835 64.0939C449.835 45.9677 439.514 36.1024 419.755 36.1024ZM416.985 80.9912H409.677C396.239 80.9912 393.537 72.8668 393.537 64.0939C393.537 55.3209 396.222 47.1966 409.677 47.1966H416.985C431.271 47.1966 434.042 55.3039 434.042 64.0939C434.042 72.8839 431.271 80.9912 416.985 80.9912ZM503.743 68.89H484.92H484.902V58.7857H517.926V92H480.625C464.572 92 455.758 83.0564 455.758 64.0939C455.758 45.1314 464.572 36.1024 480.625 36.1024H517.684V47.7598H483.067C473.231 47.7598 471.464 53.7166 471.464 64.0768C471.464 74.4371 473.231 80.5645 483.067 80.5645H503.743V68.89ZM591.316 54.8173C591.313 41.9882 585.268 36.1024 569.306 36.1024H527.797V92H543.174V73.4471H562.76L575.869 92H594.346L578.969 72.1158C587.625 69.7099 591.314 64.5067 591.316 54.8173ZM568.63 62.37H543.174V47.7769H568.63C573.756 47.7769 575.696 49.1082 575.696 54.9796C575.696 60.851 573.756 62.3529 568.63 62.3529V62.37ZM619.577 42.8955C621.619 38.7164 625.806 36.1056 630.513 36.1024C635.237 36.1056 639.424 38.6993 641.449 42.8955L665.242 92H649.882L644.548 80.9912H616.46L611.126 92H595.783L619.577 42.8955ZM630.521 52.0098L621.378 70.8869H639.665L630.521 52.0098ZM332.755 36.1024H318.901V80.0183C318.901 86.6065 324.338 91.9659 331.023 91.9659H373.709V78.3115H332.755V36.1024ZM728.467 41.2228C731.497 36.8705 736.952 34.993 742.061 36.5462V36.5291C747.169 38.0823 750.598 42.6736 750.598 47.9476V91.9829H736.744V53.4605L720.189 77.3386C717.938 80.5986 714.18 82.5443 710.18 82.5443C706.18 82.5443 702.422 80.5986 700.171 77.3386L683.633 53.4776V92.0171H669.779V47.9646C669.779 42.6906 673.208 38.0994 678.317 36.5462C683.443 34.993 688.897 36.8705 691.911 41.2228L710.18 67.5928L728.467 41.2228Z" fill="url(#paint0_angular_1062_3903)"/>
</g>
<rect x="-32" y="196" width="264" height="816" transform="rotate(-90 -32 196)" fill="url(#paint1_angular_1062_3903)"/>
<g filter="url(#filter1_b_1062_3903)">
<rect x="-4" y="-72" width="760" height="264" fill="white" fill-opacity="0.01"/>
</g>
</g>
<defs>
<filter id="filter0_d_1062_3903" x="-4" y="0" width="758.598" height="136" filterUnits="userSpaceOnUse" color-interpolation-filters="sRGB">
<feFlood flood-opacity="0" result="BackgroundImageFix"/>
<feColorMatrix in="SourceAlpha" type="matrix" values="0 0 0 0 0 0 0 0 0 0 0 0 0 0 0 0 0 0 127 0" result="hardAlpha"/>
<feOffset dy="4"/>
<feGaussianBlur stdDeviation="2"/>
<feComposite in2="hardAlpha" operator="out"/>
<feColorMatrix type="matrix" values="0 0 0 0 0 0 0 0 0 0 0 0 0 0 0 0 0 0 0.25 0"/>
<feBlend mode="normal" in2="BackgroundImageFix" result="effect1_dropShadow_1062_3903"/>
<feBlend mode="normal" in="SourceGraphic" in2="effect1_dropShadow_1062_3903" result="shape"/>
</filter>
<filter id="filter1_b_1062_3903" x="-20" y="-88" width="792" height="296" filterUnits="userSpaceOnUse" color-interpolation-filters="sRGB">
<feFlood flood-opacity="0" result="BackgroundImageFix"/>
<feGaussianBlur in="BackgroundImageFix" stdDeviation="8"/>
<feComposite in2="SourceAlpha" operator="in" result="effect1_backgroundBlur_1062_3903"/>
<feBlend mode="normal" in="SourceGraphic" in2="effect1_backgroundBlur_1062_3903" result="shape"/>
</filter>
<radialGradient id="paint0_angular_1062_3903" cx="0" cy="0" r="1" gradientUnits="userSpaceOnUse" gradientTransform="translate(375.299 64) rotate(163.286) scale(270.379 173.435)">
<stop stop-color="#DCED71"/>
<stop offset="0.1" stop-color="#08EDDF"/>
<stop offset="0.2" stop-color="#71C8F9"/>
<stop offset="0.3" stop-color="#DCED71"/>
<stop offset="0.4" stop-color="#C5ED71"/>
<stop offset="0.5" stop-color="#08C4ED"/>
<stop offset="0.6" stop-color="#08DFED"/>
<stop offset="0.7" stop-color="#7BE4B2"/>
<stop offset="0.8" stop-color="#96D8ED"/>
<stop offset="0.9" stop-color="#DCED71"/>
<stop offset="1" stop-color="#C5ED71"/>
</radialGradient>
<radialGradient id="paint1_angular_1062_3903" cx="0" cy="0" r="1" gradientUnits="userSpaceOnUse" gradientTransform="translate(100 680) rotate(-98.1058) scale(666.66 392.725)">
<stop stop-color="#DCED71"/>
<stop offset="0.1" stop-color="#08EDDF"/>
<stop offset="0.2" stop-color="#71C8F9"/>
<stop offset="0.3" stop-color="#DCED71"/>
<stop offset="0.436802" stop-color="#C5ED71"/>
<stop offset="0.520333" stop-color="#08C4ED"/>
<stop offset="0.621234" stop-color="#08DFED"/>
<stop offset="0.7" stop-color="#7BE4B2"/>
<stop offset="0.8" stop-color="#96D8ED"/>
<stop offset="0.9" stop-color="#DCED71"/>
<stop offset="1" stop-color="#C5ED71"/>
</radialGradient>
</defs>
</svg>
