<svg width="1502" height="256" viewBox="0 0 1502 256" fill="none" xmlns="http://www.w3.org/2000/svg">
<path fill-rule="evenodd" clip-rule="evenodd" d="M67.3008 45.6772C60.4003 66.3775 55.9949 95.4835 55.9949 128C55.9949 160.516 60.4003 189.623 67.3008 210.323C70.7651 220.715 74.7137 228.547 78.7099 233.618C82.7771 238.778 85.9761 240 87.9977 240C90.0193 240 93.2182 238.778 97.2854 233.618C101.282 228.547 105.23 220.715 108.695 210.323C115.595 189.623 120 160.516 120 128C120 95.4835 115.595 66.3775 108.695 45.6772C105.23 35.2852 101.282 27.4526 97.2854 22.3822C93.2182 17.2217 90.0193 16 87.9977 16C85.9761 16 82.7771 17.2217 78.7099 22.3822C74.7137 27.4526 70.7651 35.2852 67.3008 45.6772ZM66.1437 12.4782C71.6482 5.49401 78.9728 0 87.9977 0C97.0225 0 104.347 5.49401 109.852 12.4782C115.427 19.5525 120.098 29.2934 123.873 40.6172C131.451 63.3484 136 94.2423 136 128C136 161.758 131.451 192.652 123.873 215.383C120.098 226.707 115.427 236.448 109.852 243.522C104.347 250.506 97.0225 256 87.9977 256C78.9728 256 71.6482 250.506 66.1437 243.522C60.5681 236.448 55.8969 226.707 52.122 215.383C44.5444 192.652 39.9949 161.758 39.9949 128C39.9949 94.2423 44.5444 63.3484 52.122 40.6172C55.8969 29.2934 60.5681 19.5525 66.1437 12.4782Z" fill="black"/>
<path fill-rule="evenodd" clip-rule="evenodd" d="M147.298 45.6772C140.397 66.3775 135.992 95.4835 135.992 128C135.992 160.516 140.397 189.623 147.298 210.323C150.762 220.715 154.711 228.547 158.707 233.618C162.774 238.778 165.973 240 167.994 240C170.016 240 173.215 238.778 177.282 233.618C181.278 228.547 185.227 220.715 188.691 210.323C195.592 189.623 199.997 160.516 199.997 128C199.997 95.4835 195.592 66.3775 188.691 45.6772C185.227 35.2852 181.278 27.4526 177.282 22.3822C173.215 17.2217 170.016 16 167.994 16C165.973 16 162.774 17.2217 158.707 22.3822C154.711 27.4526 150.762 35.2852 147.298 45.6772ZM146.14 12.4782C151.645 5.49401 158.97 0 167.994 0C177.019 0 184.344 5.49401 189.849 12.4782C195.424 19.5525 200.095 29.2934 203.87 40.6172C211.448 63.3484 215.997 94.2423 215.997 128C215.997 161.758 211.448 192.652 203.87 215.383C200.095 226.707 195.424 236.448 189.849 243.522C184.344 250.506 177.019 256 167.994 256C158.97 256 151.645 250.506 146.14 243.522C140.565 236.448 135.894 226.707 132.119 215.383C124.541 192.652 119.992 161.758 119.992 128C119.992 94.2423 124.541 63.3484 132.119 40.6172C135.894 29.2934 140.565 19.5525 146.14 12.4782Z" fill="black"/>
<path fill-rule="evenodd" clip-rule="evenodd" d="M22.3822 118.712C17.2217 122.779 16 125.978 16 128C16 130.021 17.2217 133.22 22.3822 137.288C27.4526 141.284 35.2852 145.232 45.6772 148.697C66.3775 155.597 95.4835 160.003 128 160.003C160.516 160.003 189.623 155.597 210.323 148.697C220.715 145.232 228.547 141.284 233.618 137.288C238.778 133.22 240 130.021 240 128C240 125.978 238.778 122.779 233.618 118.712C228.547 114.716 220.715 110.767 210.323 107.303C189.623 100.402 160.516 95.9969 128 95.9969C95.4835 95.9969 66.3775 100.402 45.6772 107.303C35.2852 110.767 27.4526 114.716 22.3822 118.712ZM40.6172 92.1241C63.3484 84.5465 94.2423 79.9969 128 79.9969C161.758 79.9969 192.652 84.5465 215.383 92.1241C226.707 95.8989 236.448 100.57 243.522 106.146C250.506 111.65 256 118.975 256 128C256 137.025 250.506 144.349 243.522 149.854C236.448 155.429 226.707 160.101 215.383 163.875C192.652 171.453 161.758 176.003 128 176.003C94.2423 176.003 63.3484 171.453 40.6172 163.875C29.2934 160.101 19.5525 155.429 12.4782 149.854C5.49401 144.349 0 137.025 0 128C0 118.975 5.49401 111.65 12.4782 106.146C19.5525 100.57 29.2934 95.8989 40.6172 92.1241Z" fill="black"/>
<g clip-path="url(#clip0_965_12631)">
<path d="M432.283 114.943H367.413V72.2048H336V184H367.413V137.78H432.283V184H463.904V72.2048H432.283V114.943Z" fill="black"/>
<path d="M561.953 72.2048H538.09C498.607 72.2048 477.931 91.7306 477.931 128.188C477.931 164.645 498.607 184 538.09 184H561.953C601.436 184 622.113 164.44 622.113 128.188C622.113 91.9354 601.436 72.2048 561.953 72.2048ZM556.412 161.982H541.796C514.92 161.982 509.517 145.734 509.517 128.188C509.517 110.642 514.885 94.3932 541.796 94.3932H556.412C584.985 94.3932 590.526 110.608 590.526 128.188C590.526 145.768 584.985 161.982 556.412 161.982Z" fill="black"/>
<path d="M839.511 72.2048H815.648C776.165 72.2048 755.489 91.7647 755.489 128.188C755.489 164.611 776.165 184 815.648 184H839.511C878.994 184 899.67 164.44 899.67 128.188C899.67 91.9354 879.028 72.2048 839.511 72.2048ZM833.969 161.982H819.354C792.478 161.982 787.075 145.734 787.075 128.188C787.075 110.642 792.443 94.3932 819.354 94.3932H833.969C862.543 94.3932 868.084 110.608 868.084 128.188C868.084 145.768 862.543 161.982 833.969 161.982Z" fill="black"/>
<path d="M969.839 137.78H1007.49V161.129H966.133C946.461 161.129 942.929 148.874 942.929 128.154C942.929 107.433 946.461 95.5197 966.133 95.5197H1035.37V72.2048H961.25C929.144 72.2048 911.515 90.2627 911.515 128.188C911.515 166.113 929.144 184 961.25 184H1035.85V117.571H969.805V137.78H969.839Z" fill="black"/>
<path d="M1182.63 109.652C1182.63 83.9817 1170.54 72.2048 1138.61 72.2048H1055.59V184H1086.35V146.894H1125.52L1151.74 184H1188.69L1157.94 144.232C1175.25 139.418 1182.63 129.007 1182.63 109.618V109.652ZM1137.26 124.74H1086.35V95.5538H1137.26C1147.51 95.5538 1151.39 98.2164 1151.39 109.959C1151.39 121.702 1147.51 124.706 1137.26 124.706V124.74Z" fill="black"/>
<path d="M1261.04 72.2048C1251.62 72.2048 1243.24 77.4276 1239.15 85.7909L1191.57 184H1222.25L1232.92 161.982H1289.1L1299.76 184H1330.48L1282.9 85.7909C1278.84 77.3935 1270.46 72.2048 1261.01 72.2048H1261.04ZM1242.76 141.774L1261.04 104.02L1279.33 141.774H1242.72H1242.76Z" fill="black"/>
<path d="M665.509 72.2048H637.802V160.037C637.802 173.213 648.677 183.932 662.046 183.932H747.419V156.623H665.509V72.2048Z" fill="black"/>
<path d="M1484.12 73.0924C1473.9 69.986 1462.99 73.7409 1456.93 82.4456L1420.36 135.186L1383.82 82.4456C1377.79 73.7409 1366.88 69.986 1356.63 73.0924C1346.42 76.1987 1339.56 85.3813 1339.56 95.9293V184.034H1367.27V106.955L1400.34 154.677C1404.84 161.197 1412.36 165.089 1420.36 165.089C1428.36 165.089 1435.88 161.197 1440.38 154.677L1473.49 106.921V183.966H1501.2V95.8952C1501.2 85.3472 1494.34 76.1646 1484.12 73.0582V73.0924Z" fill="black"/>
</g>
<defs>
<clipPath id="clip0_965_12631">
<rect width="1165.23" height="112" fill="white" transform="translate(336 72)"/>
</clipPath>
</defs>
</svg>
