<svg width="31" height="22" viewBox="0 0 31 22" fill="none" xmlns="http://www.w3.org/2000/svg">
<path fill-rule="evenodd" clip-rule="evenodd" d="M21.4969 0.375H18.168V7.23233C18.1528 7.2786 18.112 7.33533 18.029 7.38291C17.9345 7.43707 17.8067 7.46538 17.6745 7.45345L17.6627 7.45239H12.9543L12.9425 7.45345C12.8104 7.46538 12.6826 7.43707 12.5881 7.38291C12.5051 7.33533 12.4643 7.2786 12.449 7.23233V0.375H9.12961V21.3679H12.449V13.9328C12.4636 13.8863 12.504 13.829 12.5874 13.7808C12.6819 13.7263 12.81 13.6976 12.9427 13.7095L12.9544 13.7105H17.6721L17.6838 13.7095C17.8165 13.6976 17.9446 13.7263 18.0391 13.7808C18.1225 13.829 18.1629 13.8863 18.1775 13.9328V21.375H21.4969V0.375Z" fill="white"/>
<path fill-rule="evenodd" clip-rule="evenodd" d="M6.6393 1.79118H4.44143V19.9517H6.6393V1.79118Z" fill="white"/>
<path fill-rule="evenodd" clip-rule="evenodd" d="M1.95048 2.63811H0.315735V19.1049H1.95048V2.63811Z" fill="white"/>
<path fill-rule="evenodd" clip-rule="evenodd" d="M30.3157 2.63811H28.6763V19.1049H30.3157V2.63811Z" fill="white"/>
<path fill-rule="evenodd" clip-rule="evenodd" d="M26.1854 1.79118H23.9875V19.9517H26.1854V1.79118Z" fill="white"/>
</svg>
