<svg width="1363" height="121" viewBox="0 0 1363 121" fill="none" xmlns="http://www.w3.org/2000/svg">
<g clip-path="url(#clip0_1211_8469)">
<path d="M105.824 43.1058H36.547V1.88965H0.369141V118.33H36.547V73.4056H105.824V118.33H141.652V1.88965H105.824V43.1058Z" fill="white"/>
<path d="M239.549 0.000488281C182.798 0.000488281 154.458 18.4043 154.458 59.9704C154.458 101.536 182.798 120.15 239.549 120.15C296.3 120.15 324.64 101.536 324.64 59.9704C324.64 18.4043 296.02 0.000488281 239.549 0.000488281ZM239.549 89.9205C203.301 89.9205 190.565 85.0219 190.565 59.9704C190.565 34.9188 203.581 30.2304 239.549 30.2304C275.517 30.2304 288.532 34.9188 288.532 59.9704C288.532 85.0219 275.657 89.9205 239.549 89.9205Z" fill="white"/>
<path d="M373.204 1.88965H337.236V118.33H463.334V88.3805H373.204V1.88965Z" fill="white"/>
<path d="M552.343 0.000488281C495.592 0.000488281 467.252 18.4043 467.252 59.9704C467.252 101.536 495.592 120.15 552.343 120.15C609.094 120.15 637.365 101.536 637.365 59.9704C637.365 18.4043 608.884 0.000488281 552.343 0.000488281ZM552.343 89.9205C516.165 89.9205 503.36 85.0219 503.36 59.9704C503.36 34.9188 516.445 30.2304 552.343 30.2304C588.241 30.2304 601.327 34.9188 601.327 59.9704C601.327 85.0219 588.521 89.9205 552.343 89.9205Z" fill="white"/>
<path d="M646.531 58.9211C646.531 92.7197 676.271 118.261 716.508 118.261H796.351V45.5553H721.896V71.4467H760.803V88.3809H716.508C696.495 88.3809 682.22 77.3946 682.22 60.3903C682.22 43.386 696.985 32.0499 716.508 32.0499H796.561V1.75H716.508C676.132 1.88995 646.531 24.8425 646.531 58.9211Z" fill="white"/>
<path d="M1045.96 0.000488281C1041.28 0.0466694 1036.7 1.26216 1032.62 3.53561C1028.53 5.80907 1025.08 9.06847 1022.58 13.0164L982.838 80.4734H1025.45L1045.26 41.007L1066.25 71.7964C1070.1 77.3945 1074.93 84.5323 1078.08 88.661C1072.48 88.661 1064.08 88.661 1057.08 88.661H947.85C945.016 85.7625 941.976 83.0728 938.753 80.6135C947.419 79.166 955.271 74.6381 960.863 67.8624C966.456 61.0866 969.414 52.5188 969.193 43.7358C969.193 10.497 935.814 2.16974 909.363 2.16974H811.046V118.541H847.084V87.7512H902.365L928.327 118.541H1141.61L1068.91 13.5759C1066.59 9.52063 1063.25 6.13808 1059.23 3.75856C1055.2 1.37905 1050.63 0.0839987 1045.96 0.000488281ZM847.084 58.7809V32.1899H912.442C924.828 32.1899 932.245 36.6684 932.245 45.6953C932.245 54.7223 923.568 58.7809 912.442 58.7809H847.084Z" fill="white"/>
<path d="M1332.86 15.9559C1331.83 11.3793 1329.26 7.29555 1325.58 4.39036C1321.9 1.48518 1317.33 -0.0647234 1312.64 0.00103282C1308.5 -0.0534738 1304.44 1.07794 1300.93 3.26068C1297.42 5.44342 1294.61 8.58611 1292.83 12.317L1274.22 45.3461C1263.93 63.26 1259.46 71.7972 1255.61 80.3343C1251.62 72.147 1247.07 63.47 1236.78 45.3461L1218.17 12.457C1216.47 8.70999 1213.71 5.54511 1210.22 3.35549C1206.74 1.16587 1202.69 0.0479814 1198.58 0.141122C1193.87 0.0560607 1189.27 1.59613 1185.56 4.50184C1181.85 7.40755 1179.26 11.5018 1178.21 16.096L1148.12 118.402H1183.11L1194.1 77.8849C1197.6 64.7993 1200.19 55.0728 1201.93 45.836C1205.57 53.6733 1209.77 61.8603 1218.24 77.8849L1233.91 107.275C1235.8 111.164 1238.74 114.443 1242.41 116.737C1246.07 119.031 1250.31 120.248 1254.63 120.248C1258.95 120.248 1263.18 119.031 1266.85 116.737C1270.51 114.443 1273.45 111.164 1275.34 107.275L1291.02 78.0249C1298.99 62.91 1303.33 54.0232 1307.18 45.836C1309.07 55.2828 1311.52 64.6593 1315.16 77.8849L1326.14 118.402H1361.97L1332.86 15.9559Z" fill="white"/>
</g>
<defs>
<clipPath id="clip0_1211_8469">
<rect width="1361.88" height="120.22" fill="white" transform="translate(0.369141 0.000488281)"/>
</clipPath>
</defs>
</svg>
