<svg width="2331" height="224" viewBox="0 0 2331 224" fill="none" xmlns="http://www.w3.org/2000/svg">
<g clip-path="url(#clip0_965_12674)">
<path d="M192.566 85.886H62.8263V0.409668H0V224H62.8263V131.56H192.566V224H255.808V0.409668H192.566V85.886Z" fill="white"/>
<path d="M451.906 0.409668H404.18C325.214 0.409668 283.861 39.4612 283.861 112.376C283.861 185.29 325.214 224 404.18 224H451.906C530.872 224 572.225 184.88 572.225 112.376C572.225 39.8708 530.872 0.409668 451.906 0.409668ZM440.823 179.965H411.592C357.84 179.965 347.034 147.467 347.034 112.376C347.034 77.2838 357.771 44.7864 411.592 44.7864H440.823C497.97 44.7864 509.052 77.2155 509.052 112.376C509.052 147.536 497.97 179.965 440.823 179.965Z" fill="white"/>
<path d="M1007.02 0.409668H959.296C880.33 0.409668 838.977 39.5294 838.977 112.376C838.977 185.222 880.33 224 959.296 224H1007.02C1085.99 224 1127.34 184.88 1127.34 112.376C1127.34 39.8708 1086.06 0.409668 1007.02 0.409668ZM995.939 179.965H966.708C912.956 179.965 902.15 147.467 902.15 112.376C902.15 77.2838 912.886 44.7864 966.708 44.7864H995.939C1053.09 44.7864 1064.17 77.2155 1064.17 112.376C1064.17 147.536 1053.09 179.965 995.939 179.965Z" fill="white"/>
<path d="M1267.68 131.56H1342.97V178.258H1260.27C1220.92 178.258 1213.86 153.748 1213.86 112.307C1213.86 70.8662 1220.92 47.0394 1260.27 47.0394H1398.73V0.409668H1250.5C1186.29 0.409668 1151.03 36.5255 1151.03 112.376C1151.03 188.226 1186.29 224 1250.5 224H1399.7V91.143H1267.61V131.56H1267.68Z" fill="white"/>
<path d="M1693.26 75.3039C1693.26 23.9635 1669.09 0.409668 1605.22 0.409668H1439.19V224H1500.7V149.789H1579.04L1631.48 224H1705.38L1643.87 144.463C1678.51 134.837 1693.26 114.014 1693.26 75.2356V75.3039ZM1602.52 105.48H1500.7V47.1076H1602.52C1623.02 47.1076 1630.78 52.4328 1630.78 75.9184C1630.78 99.4039 1623.02 105.412 1602.52 105.412V105.48Z" fill="white"/>
<path d="M1850.09 0.409668C1831.24 0.409668 1814.48 10.8553 1806.31 27.5819L1711.13 224H1772.51L1793.84 179.965H1906.19L1927.53 224H1988.97L1893.79 27.5819C1885.69 10.787 1868.93 0.409668 1850.02 0.409668H1850.09ZM1813.51 139.548L1850.09 64.039L1886.66 139.548H1813.44H1813.51Z" fill="white"/>
<path d="M659.018 0.409668H603.604V176.073C603.604 202.426 625.354 223.863 652.091 223.863H822.838V169.246H659.018V0.409668Z" fill="white"/>
<path d="M2296.24 2.1847C2275.81 -4.02804 2253.99 3.48187 2241.87 20.8912L2168.72 126.371L2095.64 20.8912C2083.59 3.48187 2061.77 -4.02804 2041.27 2.1847C2020.83 8.39744 2007.12 26.7626 2007.12 47.8586V224.068H2062.53V69.9104L2128.68 165.354C2137.69 178.394 2152.72 186.177 2168.72 186.177C2184.72 186.177 2199.75 178.394 2208.76 165.354L2274.98 69.8421V223.932H2330.39V47.7903C2330.39 26.6943 2316.68 8.32917 2296.24 2.11643V2.1847Z" fill="white"/>
</g>
<defs>
<clipPath id="clip0_965_12674">
<rect width="2330.46" height="224" fill="white"/>
</clipPath>
</defs>
</svg>
