<svg xmlns="http://www.w3.org/2000/svg" width="265" height="31" fill="#9A9A9A" viewBox="0 0 265 31" class="css-1jweud7"><g clip-path="url(#inflection_svg__inflection_svg__clip0_809_736)"><path fill="#9A9A9A" d="M101.789 1.364c-.005-.753.185-.978.991-.978 7.848.032 15.7.032 23.547 0 .826 0 1.025.248.987.992v3.4S127.485 6 126.1 6c-5.575 0-11.15 0-16.72-.055-1.025-.009-1.281.258-1.219 1.204v4.062c-.09 1.066.337 1.236 1.319 1.222l10.466-.041c.802-.01 1.044.202 1.001.974v3.62c.043.758-.171.988-.987.979l-10.58-.041c-.821-.01-1.105.146-1.068 1.001v5.16c-.037.868.29 1.01 1.101 1.006 5.613-.032 11.226.014 16.834-.046 1.044-.009 1.295.285 1.224 1.227-.086 1.167-.052 2.343-.01 3.51.024.643-.133.882-.873.882a3150.53 3150.53 0 00-23.774 0c-.869 0-.873-.376-.873-.988.014-4.755-.124-23.634-.157-28.32l.005.008z"></path><path fill="#9A9A9A" d="M145.88 31c-9.006 0-14.058-3.896-16.241-10.6-2.154-6.616.337-13.913 6.049-17.712 6.201-4.122 15.377-3.428 20.914 1.553.403.363.456.537.067.919-1.092 1.066-2.197 2.122-3.189 3.27-.598.69-.863.277-1.276-.11-2.946-2.775-6.419-3.647-10.329-2.407-4.934 1.567-7.79 7.09-6.433 12.199 1.38 5.196 6.058 8.183 11.443 7.393 2.249-.331 4.066-1.342 5.561-2.918.607-.643.958-.616 1.547.005.868.914 1.826 1.755 2.785 2.577.469.404.479.643.014 1.09-3.174 3.06-6.486 4.415-10.912 4.736V31zm44.067-27.554c0 1.962-1.875 3.501-3.843 2.936-1.671-.478-3.222-.57-4.859.018-.944.34-1.855-.12-2.756-.376-1.376-.395-1.979.092-1.514 1.392.508 1.424.536 2.757-.014 4.163-.285.726-.19 1.52.114 2.26.45 1.103.46 2.21.028 3.318-.365.932-.356 1.851-.009 2.784.427 1.14.469 2.288.038 3.432-.408 1.08-.375 2.123.071 3.198.536 1.295.123 2.623-.959 3.446a3.28 3.28 0 01-3.809.124c-1.096-.73-1.675-2.127-1.168-3.386.518-1.273.513-2.458.029-3.717-.365-.951-.29-1.953.09-2.9.413-1.038.437-2.067.024-3.101-.418-1.043-.38-2.063.028-3.097.361-.919.404-1.865.019-2.784-.479-1.153-.432-2.274.062-3.405.237-.542.474-1.13-.057-1.626-.489-.46-1.068-.253-1.599-.042-1.21.474-2.41.556-3.634.046-1.215-.505-2.368-.087-3.54.22-1.741.465-3.401-.358-3.947-1.892-.403-1.14-.176-2.178.64-3.065.854-.928 2.007-1.295 3.193-.9 1.542.514 2.994.588 4.522.009.849-.322 1.727-.101 2.553.202 1.005.368 1.987.377 2.989-.014 1.105-.427 2.215-.404 3.321.023.958.372 1.912.35 2.88 0 .901-.321 1.831-.528 2.766-.165 1.409.547 2.761.432 4.199-.01 2.158-.666 4.146.796 4.146 2.914l-.004-.005zM73.592 27.448c-.028-.431.09-.896.266-1.337.417-1.038.38-2.063-.02-3.096-.355-.924-.379-1.866-.018-2.79.427-1.107.446-2.2.01-3.308-.38-.964-.333-1.938.033-2.894.38-1.002.389-1.985.01-2.991-.428-1.14-.414-2.302 0-3.437.37-1.01.35-1.976-.058-2.982-.57-1.401-.152-2.789 1.01-3.625 1.14-.823 2.63-.818 3.806.014 1.138.804 1.56 2.228.977 3.63-.422 1.01-.427 1.989-.052 2.986.427 1.149.441 2.279 0 3.428-.37.96-.39 1.925 0 2.89.427 1.07.413 2.136-.005 3.207-.36.923-.384 1.856-.014 2.784.456 1.149.427 2.274-.085 3.4-.233.505-.437 1.08-.01 1.553.484.538 1.115.326 1.684.101 1.21-.473 2.401-.538 3.635-.041.991.4 1.997.28 2.989-.083.873-.322 1.779-.441 2.661-.096 1.376.537 2.69.404 4.085-.014 2.064-.616 3.995.625 4.166 2.536.195 2.173-1.75 3.91-3.919 3.29-1.637-.469-3.145-.565-4.744.032-.764.285-1.585.06-2.33-.22a4.276 4.276 0 00-3.093 0c-.783.284-1.623.496-2.444.192-1.518-.565-2.965-.496-4.526-.027-2.159.648-4.057-.878-4.014-3.097v-.005z"></path><path fill="#9A9A9A" d="M60.578 17.979c-.422.04-.977-.23-1.504-.506-.992-.528-1.95-.514-2.913.023-1.115.62-2.22.607-3.34.01-.83-.442-1.727-.763-2.524-.028-.807.744-.484 1.65-.048 2.43.631 1.135.67 2.197 0 3.322-.602 1.011-.403 1.994.133 3.019.835 1.594.29 3.106-1.22 3.653-1.01.363-1.94.206-2.718-.543-.816-.79-1.049-1.791-.508-2.715.835-1.433.816-2.725-.028-4.126-.474-.79-.214-1.654.232-2.408.627-1.052.622-2.067-.004-3.11-.58-.96-.593-1.948-.01-2.918.626-1.038.664-2.058.02-3.106-.613-.997-.584-2.012.018-3.014.598-1.001.56-1.975 0-3.014-.74-1.378-.612-2.37.261-3.225s1.936-.997 3.336-.294c1.11.556 2.158.592 3.23-.014 1.006-.57 2.017-.574 3.018-.01 1.124.64 2.216.593 3.33-.027.921-.514 1.889-.551 2.814-.027 1.196.68 2.306.606 3.535-.01 1.807-.9 3.667.023 3.857 1.802.195 1.833-1.48 3.151-3.302 2.595a4.129 4.129 0 01-.84-.33c-1.01-.57-2.007-.56-3.013.009-1.077.61-2.158.606-3.23 0-1.006-.565-1.998-.58-3.009-.014-1.11.62-2.22.602-3.34-.014a3.321 3.321 0 00-1.053-.381c-1.262-.207-2.078.579-1.85 1.792.075.423.256.84.46 1.222.531.992.503 1.957-.015 2.94-.184.354-.365.731-.44 1.117-.271 1.374.697 2.205 2.087 1.81.432-.124.83-.349 1.243-.528.683-.299 1.456-.487 2.087-.138 1.562.86 3.004.86 4.598.028.925-.483 1.95-.184 2.695.583.702.726.887 1.613.527 2.546-.4 1.029-1.215 1.548-2.572 1.59v.009z"></path><path fill="#9A9A9A" d="M36.509 24.784c-.043-.736-.299-1.223-.645-1.664-.778-.997-.859-2.008-.038-3.01.85-1.038.854-2.053.014-3.091-.769-.956-.82-1.94-.043-2.909.86-1.066.883-2.104.01-3.184-.736-.91-.802-1.884-.038-2.812.949-1.153.82-2.219-.038-3.386-.792-1.08-.612-2.215.313-2.798.73-.464 1.504-.483 2.225.018.774.538.95 1.3.67 2.146-.115.34-.338.657-.556.946-.712.947-.745 1.898 0 2.821.901 1.122.859 2.197-.019 3.3-.716.895-.707 1.824 0 2.715.883 1.107.911 2.187.014 3.299-.754.933-.711 1.888.02 2.812.815 1.029.896 2.058.051 3.106-.849 1.047-.773 2.076.048 3.096.356.446.598.92.55 1.508-.07.91-.536 1.506-1.461 1.709-.968.211-1.718-.129-2.159-.988-.147-.285-.209-.625-.265-.947-.266-1.48-1.068-2.449-2.657-2.752-1.248-.239-1.95-.965-2.145-2.224-.213-1.396-1.058-2.306-2.548-2.582-1.257-.234-2.002-.933-2.187-2.187-.213-1.47-1.082-2.361-2.61-2.651-1.261-.239-1.978-.988-2.153-2.224-.204-1.438-1.068-2.316-2.534-2.591-1.333-.253-2.03-1.025-2.225-2.284-.124-.79-.45-1.47-1.12-1.957-.2-.147-.45-.418-.678-.239-.166.129-.233.469-.219.703.034.56.304 1.052.65 1.493.802 1.007.807 2.013 0 3.01-.84 1.043-.801 2.054.034 3.087.773.96.768 1.958 0 2.913-.873 1.085-.83 2.11.033 3.18.702.873.783 1.847.052 2.73-.992 1.194-.85 2.264.024 3.473.925 1.282.389 2.738-1.001 3.041-.726.157-1.367-.014-1.86-.542-.494-.524-.655-1.153-.39-1.833.12-.303.267-.611.47-.869.83-1.038.864-2.063.024-3.1-.816-1.012-.783-2.013.014-3.01.802-1.007.807-2.013.005-3.01-.844-1.052-.787-2.067.033-3.101.774-.97.745-1.944-.014-2.913-.702-.896-.963-1.87-.185-2.817 1.016-1.231.944-2.366-.019-3.574-.579-.73-.655-1.558-.042-2.334.512-.648 1.21-.837 2.02-.648.798.179 1.282.735 1.386 1.442.275 1.857 1.234 2.982 3.198 3.322.944.166 1.49.855 1.627 1.77.247 1.695 1.196 2.683 2.96 2.995 1.04.184 1.652.882 1.799 1.88.247 1.653 1.181 2.618 2.89 2.93 1.09.198 1.722.901 1.873 1.944.233 1.622 1.163 2.555 2.814 2.867 1.195.225 1.793 1.006 1.983 2.118.138.823.432 1.553 1.153 2.059.195.137.399.386.669.225.194-.115.237-.363.233-.427h-.01zm170.703-1.039c.28-1.268-.38-2.205-1.618-2.917-1.585-.915-1.869-2.095-.816-3.598.835-1.195.797-2.256-.01-3.437-1.039-1.52-.763-2.655.859-3.579 1.267-.721 1.741-1.69 1.599-3.097-.209-2.058.617-2.913 2.709-2.766 1.509.106 2.51-.372 3.226-1.681.835-1.54 2.107-1.866 3.587-.915 1.3.837 2.453.878 3.767.028 1.538-.993 2.752-.675 3.658.923.703 1.241 1.666 1.756 3.141 1.65 2.173-.16 3.084.832 2.781 2.922-.181 1.227.251 2.114 1.338 2.77 1.997 1.214 2.187 2.06.93 4.053-.617.974-.608 1.902.009 2.876 1.243 1.958 1.039 2.826-.963 4.048-1.082.662-1.49 1.562-1.31 2.785.295 2.03-.621 3.064-2.699 2.899-1.523-.12-2.515.381-3.241 1.663-.901 1.585-2.14 1.88-3.672.887-1.215-.79-2.33-.836-3.568-.055-1.684 1.066-2.847.772-3.824-.938-.664-1.162-1.585-1.65-2.965-1.566-2.297.137-3.065-.644-2.909-2.955h-.009zm22.062-12.465c.261-1.41-.271-2.408-1.599-3.07-.716-.353-1.248-.927-1.618-1.64-.603-1.157-1.532-1.773-2.932-1.59-1.101.143-2.088-.123-2.989-.762-.921-.652-1.926-.69-2.856-.06-1.054.717-2.169.933-3.431.814-1.02-.097-1.864.317-2.353 1.217-.545 1.002-1.324 1.737-2.329 2.32-.959.556-1.4 1.448-1.177 2.527.223 1.076 0 2.027-.645 2.9-.802 1.093-.759 2.16.042 3.239.57.767.845 1.636.636 2.587-.289 1.323.218 2.297 1.39 2.95.845.473 1.49 1.093 1.936 1.938.55 1.053 1.461 1.567 2.69 1.42 1.186-.138 2.23.133 3.207.804.93.634 1.941.607 2.861-.027.945-.653 1.96-.92 3.099-.777 1.3.161 2.201-.4 2.78-1.47.398-.735.906-1.37 1.665-1.746 1.319-.652 1.846-1.65 1.632-3.05-.147-.98.062-1.88.674-2.698.773-1.034.788-2.1.019-3.147-.593-.813-.863-1.696-.697-2.688l-.005.009z"></path><path fill="#9A9A9A" d="M240.727 5.426c-.133.998-.142 1.852.199 2.68.366.886.389 1.745.024 2.66a4.649 4.649 0 00-.019 3.436c.332.869.375 1.682.033 2.555-.469 1.204-.455 2.44.024 3.643.313.795.318 1.567.01 2.348-.499 1.255-.47 2.5.004 3.75.014.032.033.064.043.1.209.717.432 1.453-.304 2.018-.46.349-1.001.376-1.48.046-.821-.566-.636-1.342-.356-2.082.489-1.29.536-2.568.019-3.855-.313-.78-.28-1.548.029-2.343.469-1.204.484-2.435 0-3.644-.332-.827-.332-1.621 0-2.444.488-1.208.46-2.435-.01-3.643-.308-.79-.337-1.553-.014-2.344.503-1.245.479-2.495.009-3.749a3.833 3.833 0 01-.237-.845c-.081-.634.109-1.144.778-1.42.679-.285 1.182-.023 1.585.473.209.253.356.56.503.855.308.634.636 1.332 1.214 1.7 2.088 1.318 3.369 3.358 5.072 4.999 1.533 1.475 2.937 3.041 4.432 4.516 1.717 1.696 3.364 3.45 5.067 5.137 1.509 1.489 3.269 2.72 4.351 4.595.223.39.631.703 1.205.95.104-.881.166-1.685-.157-2.485-.37-.914-.413-1.82-.047-2.766.469-1.208.389-2.449-.053-3.653a3.124 3.124 0 01.01-2.242c.465-1.245.47-2.513 0-3.758-.285-.758-.308-1.489-.019-2.242.493-1.287.465-2.573.005-3.864-.024-.07-.071-.134-.09-.203-.148-.684-.342-1.392.393-1.897.48-.336 1.011-.336 1.481 0 .702.505.645 1.185.365 1.879-.574 1.424-.598 2.849 0 4.268.275.653.213 1.287-.033 1.921-.513 1.319-.574 2.633-.01 3.956.337.79.252 1.567-.061 2.348-.475 1.176-.461 2.366 0 3.538.327.827.365 1.63.028 2.449-.517 1.25-.474 2.495.014 3.74.105.27.19.56.228.845.085.643-.138 1.144-.802 1.406-.678.267-1.181.018-1.57-.505a5.314 5.314 0 01-.498-.86 6.57 6.57 0 00-3.07-3.12c-.773-.385-1.329-.941-1.684-1.704-.641-1.383-1.67-2.426-3.061-3.124-.768-.386-1.314-.928-1.674-1.705-.641-1.374-1.68-2.426-3.07-3.124-.773-.386-1.3-.938-1.67-1.705-.655-1.36-1.666-2.435-3.075-3.12-.778-.376-1.304-.937-1.674-1.704-.508-1.052-1.21-1.98-2.396-2.67l.009.01z"></path><path fill="#9A9A9A" d="M198.582 27.467c-.057 1.199-.508 1.948-1.466 2.366-.945.409-1.851.33-2.667-.299-.854-.666-1.086-1.557-.859-2.563.072-.313.228-.62.399-.901.579-.97.607-1.939.014-2.908-.659-1.076-.631-2.146.014-3.217.565-.932.56-1.865-.009-2.798-.65-1.07-.664-2.145-.005-3.216.598-.974.55-1.939-.024-2.904-.545-.914-.697-1.884-.128-2.812.726-1.194.66-2.274.005-3.505-.906-1.705.033-3.479 1.803-3.69 1.993-.243 3.539 1.535 2.695 3.304-.712 1.488-.864 2.793 0 4.236.47.785.232 1.645-.228 2.398-.64 1.048-.617 2.077 0 3.11.579.97.598 1.944.005 2.91-.66 1.079-.622 2.14.028 3.21.541.888.57 1.82.034 2.712-.693 1.153-.722 2.26.009 3.409.256.4.418.864.365 1.162l.015-.004z"></path><path fill="#9A9A9A" d="M2.619 15.447c-.029.216-.014.414-.08.575-.736 1.704-.717 3.395.004 5.109.228.533 0 1.098-.204 1.599-.503 1.254-.503 2.49 0 3.735.08.202.133.418.19.63.17.62.057 1.18-.503 1.562-.432.299-.925.312-1.386.023-.588-.368-.787-.924-.54-1.526.697-1.718.65-3.413-.01-5.122-.2-.51-.024-1.011.157-1.494.503-1.323.522-2.642 0-3.96a2.768 2.768 0 010-2.132c.522-1.319.507-2.642-.015-3.956-.284-.717-.256-1.42.024-2.132.503-1.282.494-2.569 0-3.85-.028-.07-.066-.134-.085-.203C0 3.625-.157 2.932.56 2.417c.484-.345 1.015-.34 1.48-.005.688.497.66 1.177.384 1.88-.564 1.42-.626 2.834-.014 4.263.218.51.313 1.057.076 1.604-.678 1.562-.655 3.124-.01 4.686.081.198.105.423.148.602h-.005z"></path></g><defs><clipPath id="inflection_svg__inflection_svg__clip0_809_736"><path fill="#9A9A9A" d="M0 0h265v31H0z"></path></clipPath></defs></svg>